G04 FreePCB version 1.355*
G04 C:\FcPoly-Ttest\top_solder_mask.grb*
G04 top solder mask layer *
G04 Scale: 100 percent, Rotated: No, Reflected: No *
G04 Converted by FpcPoly Version 1.13R on Wed May 15 18:47:10 2019 *

%FSLAX24Y24*%
%MOIN*%
%LN top solder mask *%
G04 Rounded Rectangle Macro, params: W/2, H/2, R *
%AMRNDREC*
21,1,$1+$1,$2+$2-$3-$3,0,0,0*
21,1,$1+$1-$3-$3,$2+$2,0,0,0*
1,1,$3+$3,$1-$3,$2-$3*
1,1,$3+$3,$3-$1,$2-$3*
1,1,$3+$3,$1-$3,$3-$2*
1,1,$3+$3,$3-$1,$3-$2*%
G04 Rectangular Thermal Macro, params: W/2, H/2, T/2 *
%AMRECTHERM*
$4=$3/2*
21,1,$1-$3,$2-$3,0-$1/2-$4,0-$2/2-$4,0*
21,1,$1-$3,$2-$3,0-$1/2-$4,$2/2+$4,0*
21,1,$1-$3,$2-$3,$1/2+$4,0-$2/2-$4,0*
21,1,$1-$3,$2-$3,$1/2+$4,$2/2+$4,0*%
%ADD10C,0.005000*%
%ADD11C,0.076000*%
%ADD12R,0.066000X0.066000*%
%ADD13R,0.086000X0.118000*%
%ADD14R,0.096000X0.040000*%
%ADD15R,0.076000X0.076000*%

%LPD*%

G04 Begin outline 1 *

G36*
X0Y11800D02*
X23250Y11800D01*
G04 end of side 1*
X23250Y0D01*
G04 end of side 2*
X0Y0D01*
G04 end of side 3*
X0Y11800D01*

G37*
G04 End outline 1 *

%LPC*%

G54D10*
X0Y11800D02*
X23250Y11800D01*
G04 end of side 1*
X23250Y0D01*
G04 end of side 2*
X0Y0D01*
G04 end of side 3*
X0Y11800D01*

G04 -------------- Draw Parts, Pads, Traces, Vias and Text (positive)*
G04 Draw part J1*
G54D11*
X3960Y7900D03*
X3960Y6900D03*
X3960Y5900D03*
X3960Y4900D03*
X3960Y3900D03*
G04 Draw part C1*
G54D12*
X6280Y9000D03*
X6280Y9750D03*
G04 Draw part C2*
G54D13*
X8000Y8240D03*
X8000Y9740D03*
G04 Draw part U1*
G54D14*
X9630Y5200D03*
X9630Y4700D03*
X9630Y4200D03*
X9630Y3700D03*
X9630Y3200D03*
X9630Y2700D03*
X9630Y2200D03*
X9630Y1700D03*
X13630Y1700D03*
X13630Y2200D03*
X13630Y2700D03*
X13630Y3200D03*
X13630Y3700D03*
X13630Y4200D03*
X13630Y4700D03*
X13630Y5200D03*
G04 Draw part C3*
G54D12*
X8320Y4700D03*
X8320Y3950D03*
G04 Draw part C4*
X8320Y6380D03*
X8320Y5630D03*
G04 Draw part C5*
X14950Y6700D03*
X14950Y5950D03*
G04 Draw part C6*
X14950Y4950D03*
X14950Y4200D03*
G04 Draw part R1*
G54D15*
X5440Y5650D03*
X5440Y6900D03*
G04 Draw part R2*
X6800Y2200D03*
X5550Y2200D03*
G04 Draw part R3*
X17720Y6860D03*
X17720Y5610D03*
G04 Draw part R4*
X17740Y2200D03*
X16490Y2200D03*
G04 Draw part J2*
G54D11*
X19280Y7860D03*
X19280Y6860D03*
X19280Y5860D03*
X19280Y4860D03*
X19280Y3860D03*
G04 Draw part C7*
G54D12*
X16960Y8980D03*
X16960Y9730D03*
G04 Draw part C8*
G54D13*
X15100Y8240D03*
X15100Y9740D03*
G04 Draw part J3*
G54D11*
X16340Y6700D03*
X16340Y5700D03*
X16340Y4700D03*
G04 Draw part J4*
X6920Y6700D03*
X6920Y5700D03*
X6920Y4700D03*
G04 Draw part U2*
X10130Y7000D03*
X11130Y7000D03*
X12130Y7000D03*
X13130Y7000D03*

G04 Draw traces*

G04 Draw Text*

G04 Draw solder mask cutouts*

M00*
M02*
