G04 FreePCB version 1.359*
G04 C:\Users\Adam\Desktop\Magisterka\FreePCB project01\bottom_copper.grb*
G04 bottom copper layer *
G04 Scale: 100 percent, Rotated: No, Reflected: No *
%FSLAX24Y24*%
%MOIN*%
%LN bottom copper *%
G04 Rounded Rectangle Macro, params: W/2, H/2, R *
%AMRNDREC*
21,1,$1+$1,$2+$2-$3-$3,0,0,0*
21,1,$1+$1-$3-$3,$2+$2,0,0,0*
1,1,$3+$3,$1-$3,$2-$3*
1,1,$3+$3,$3-$1,$2-$3*
1,1,$3+$3,$1-$3,$3-$2*
1,1,$3+$3,$3-$1,$3-$2*%
G04 Rectangular Thermal Macro, params: W/2, H/2, T/2 *
%AMRECTHERM*
$4=$3/2*
21,1,$1-$3,$2-$3,0-$1/2-$4,0-$2/2-$4,0*
21,1,$1-$3,$2-$3,0-$1/2-$4,$2/2+$4,0*
21,1,$1-$3,$2-$3,$1/2+$4,0-$2/2-$4,0*
21,1,$1-$3,$2-$3,$1/2+$4,$2/2+$4,0*%
%AMMOIRE10*6,0,0,0.350000,0.005,0.050,3,0.005,0.400000,0.0*%
%ADD10MOIRE10*%
%ADD11C,0.010000*%
%ADD12C,0.005000*%
%ADD13R,0.050000X0.050000*%
%ADD14C,0.050000*%
%ADD15R,0.055000X0.055000*%
%ADD16C,0.055000*%
%ADD17C,0.075000*%
%ADD18R,0.250000X0.250000*%
%ADD19C,0.028000*%
G90*
G70D02*

G04 ----------------------- Draw moires (positive)*
%LPD*%
G54D10*
G01X-5000Y0D03*
G01X35000Y0D03*
G01X-5000Y20000D03*

G04 Draw Layer Name*
G54D11*
G01X0Y-1045D02*
G01X0Y-2000D01*
G01X0Y-1045D02*
G01X409Y-1045D01*
G01X409Y-1045D02*
G01X545Y-1090D01*
G01X545Y-1090D02*
G01X590Y-1136D01*
G01X590Y-1136D02*
G01X636Y-1227D01*
G01X636Y-1227D02*
G01X636Y-1318D01*
G01X636Y-1318D02*
G01X590Y-1409D01*
G01X590Y-1409D02*
G01X545Y-1454D01*
G01X545Y-1454D02*
G01X409Y-1500D01*
G01X0Y-1500D02*
G01X409Y-1500D01*
G01X409Y-1500D02*
G01X545Y-1545D01*
G01X545Y-1545D02*
G01X590Y-1590D01*
G01X590Y-1590D02*
G01X636Y-1681D01*
G01X636Y-1681D02*
G01X636Y-1818D01*
G01X636Y-1818D02*
G01X590Y-1909D01*
G01X590Y-1909D02*
G01X545Y-1954D01*
G01X545Y-1954D02*
G01X409Y-2000D01*
G01X409Y-2000D02*
G01X0Y-2000D01*
G01X1227Y-1363D02*
G01X1136Y-1409D01*
G01X1136Y-1409D02*
G01X1045Y-1500D01*
G01X1045Y-1500D02*
G01X1000Y-1636D01*
G01X1000Y-1636D02*
G01X1000Y-1727D01*
G01X1000Y-1727D02*
G01X1045Y-1863D01*
G01X1045Y-1863D02*
G01X1136Y-1954D01*
G01X1136Y-1954D02*
G01X1227Y-2000D01*
G01X1227Y-2000D02*
G01X1363Y-2000D01*
G01X1363Y-2000D02*
G01X1454Y-1954D01*
G01X1454Y-1954D02*
G01X1545Y-1863D01*
G01X1545Y-1863D02*
G01X1590Y-1727D01*
G01X1590Y-1727D02*
G01X1590Y-1636D01*
G01X1590Y-1636D02*
G01X1545Y-1500D01*
G01X1545Y-1500D02*
G01X1454Y-1409D01*
G01X1454Y-1409D02*
G01X1363Y-1363D01*
G01X1363Y-1363D02*
G01X1227Y-1363D01*
G01X2090Y-1045D02*
G01X2090Y-1818D01*
G01X2090Y-1818D02*
G01X2136Y-1954D01*
G01X2136Y-1954D02*
G01X2227Y-2000D01*
G01X2227Y-2000D02*
G01X2318Y-2000D01*
G01X1954Y-1363D02*
G01X2272Y-1363D01*
G01X2818Y-1045D02*
G01X2818Y-1818D01*
G01X2818Y-1818D02*
G01X2863Y-1954D01*
G01X2863Y-1954D02*
G01X2954Y-2000D01*
G01X2954Y-2000D02*
G01X3045Y-2000D01*
G01X2681Y-1363D02*
G01X2999Y-1363D01*
G01X3636Y-1363D02*
G01X3545Y-1409D01*
G01X3545Y-1409D02*
G01X3454Y-1500D01*
G01X3454Y-1500D02*
G01X3409Y-1636D01*
G01X3409Y-1636D02*
G01X3409Y-1727D01*
G01X3409Y-1727D02*
G01X3454Y-1863D01*
G01X3454Y-1863D02*
G01X3545Y-1954D01*
G01X3545Y-1954D02*
G01X3636Y-2000D01*
G01X3636Y-2000D02*
G01X3772Y-2000D01*
G01X3772Y-2000D02*
G01X3863Y-1954D01*
G01X3863Y-1954D02*
G01X3954Y-1863D01*
G01X3954Y-1863D02*
G01X3999Y-1727D01*
G01X3999Y-1727D02*
G01X3999Y-1636D01*
G01X3999Y-1636D02*
G01X3954Y-1500D01*
G01X3954Y-1500D02*
G01X3863Y-1409D01*
G01X3863Y-1409D02*
G01X3772Y-1363D01*
G01X3772Y-1363D02*
G01X3636Y-1363D01*
G01X4363Y-1363D02*
G01X4363Y-2000D01*
G01X4363Y-1545D02*
G01X4499Y-1409D01*
G01X4499Y-1409D02*
G01X4590Y-1363D01*
G01X4590Y-1363D02*
G01X4727Y-1363D01*
G01X4727Y-1363D02*
G01X4818Y-1409D01*
G01X4818Y-1409D02*
G01X4863Y-1545D01*
G01X4863Y-1545D02*
G01X4863Y-2000D01*
G01X4863Y-1545D02*
G01X4999Y-1409D01*
G01X4999Y-1409D02*
G01X5090Y-1363D01*
G01X5090Y-1363D02*
G01X5227Y-1363D01*
G01X5227Y-1363D02*
G01X5318Y-1409D01*
G01X5318Y-1409D02*
G01X5363Y-1545D01*
G01X5363Y-1545D02*
G01X5363Y-2000D01*
G01X7136Y-1272D02*
G01X7090Y-1181D01*
G01X7090Y-1181D02*
G01X6999Y-1090D01*
G01X6999Y-1090D02*
G01X6909Y-1045D01*
G01X6909Y-1045D02*
G01X6727Y-1045D01*
G01X6727Y-1045D02*
G01X6636Y-1090D01*
G01X6636Y-1090D02*
G01X6545Y-1181D01*
G01X6545Y-1181D02*
G01X6499Y-1272D01*
G01X6499Y-1272D02*
G01X6454Y-1409D01*
G01X6454Y-1409D02*
G01X6454Y-1636D01*
G01X6454Y-1636D02*
G01X6499Y-1772D01*
G01X6499Y-1772D02*
G01X6545Y-1863D01*
G01X6545Y-1863D02*
G01X6636Y-1954D01*
G01X6636Y-1954D02*
G01X6727Y-2000D01*
G01X6727Y-2000D02*
G01X6909Y-2000D01*
G01X6909Y-2000D02*
G01X6999Y-1954D01*
G01X6999Y-1954D02*
G01X7090Y-1863D01*
G01X7090Y-1863D02*
G01X7136Y-1772D01*
G01X7727Y-1363D02*
G01X7636Y-1409D01*
G01X7636Y-1409D02*
G01X7545Y-1500D01*
G01X7545Y-1500D02*
G01X7500Y-1636D01*
G01X7500Y-1636D02*
G01X7500Y-1727D01*
G01X7500Y-1727D02*
G01X7545Y-1863D01*
G01X7545Y-1863D02*
G01X7636Y-1954D01*
G01X7636Y-1954D02*
G01X7727Y-2000D01*
G01X7727Y-2000D02*
G01X7863Y-2000D01*
G01X7863Y-2000D02*
G01X7954Y-1954D01*
G01X7954Y-1954D02*
G01X8045Y-1863D01*
G01X8045Y-1863D02*
G01X8090Y-1727D01*
G01X8090Y-1727D02*
G01X8090Y-1636D01*
G01X8090Y-1636D02*
G01X8045Y-1500D01*
G01X8045Y-1500D02*
G01X7954Y-1409D01*
G01X7954Y-1409D02*
G01X7863Y-1363D01*
G01X7863Y-1363D02*
G01X7727Y-1363D01*
G01X8454Y-1363D02*
G01X8454Y-2318D01*
G01X8454Y-1500D02*
G01X8545Y-1409D01*
G01X8545Y-1409D02*
G01X8636Y-1363D01*
G01X8636Y-1363D02*
G01X8772Y-1363D01*
G01X8772Y-1363D02*
G01X8863Y-1409D01*
G01X8863Y-1409D02*
G01X8954Y-1500D01*
G01X8954Y-1500D02*
G01X8999Y-1636D01*
G01X8999Y-1636D02*
G01X8999Y-1727D01*
G01X8999Y-1727D02*
G01X8954Y-1863D01*
G01X8954Y-1863D02*
G01X8863Y-1954D01*
G01X8863Y-1954D02*
G01X8772Y-2000D01*
G01X8772Y-2000D02*
G01X8636Y-2000D01*
G01X8636Y-2000D02*
G01X8545Y-1954D01*
G01X8545Y-1954D02*
G01X8454Y-1863D01*
G01X9363Y-1363D02*
G01X9363Y-2318D01*
G01X9363Y-1500D02*
G01X9454Y-1409D01*
G01X9454Y-1409D02*
G01X9545Y-1363D01*
G01X9545Y-1363D02*
G01X9681Y-1363D01*
G01X9681Y-1363D02*
G01X9772Y-1409D01*
G01X9772Y-1409D02*
G01X9863Y-1500D01*
G01X9863Y-1500D02*
G01X9909Y-1636D01*
G01X9909Y-1636D02*
G01X9909Y-1727D01*
G01X9909Y-1727D02*
G01X9863Y-1863D01*
G01X9863Y-1863D02*
G01X9772Y-1954D01*
G01X9772Y-1954D02*
G01X9681Y-2000D01*
G01X9681Y-2000D02*
G01X9545Y-2000D01*
G01X9545Y-2000D02*
G01X9454Y-1954D01*
G01X9454Y-1954D02*
G01X9363Y-1863D01*
G01X10272Y-1636D02*
G01X10818Y-1636D01*
G01X10818Y-1636D02*
G01X10818Y-1545D01*
G01X10818Y-1545D02*
G01X10772Y-1454D01*
G01X10772Y-1454D02*
G01X10727Y-1409D01*
G01X10727Y-1409D02*
G01X10636Y-1363D01*
G01X10636Y-1363D02*
G01X10499Y-1363D01*
G01X10499Y-1363D02*
G01X10409Y-1409D01*
G01X10409Y-1409D02*
G01X10318Y-1500D01*
G01X10318Y-1500D02*
G01X10272Y-1636D01*
G01X10272Y-1636D02*
G01X10272Y-1727D01*
G01X10272Y-1727D02*
G01X10318Y-1863D01*
G01X10318Y-1863D02*
G01X10409Y-1954D01*
G01X10409Y-1954D02*
G01X10499Y-2000D01*
G01X10499Y-2000D02*
G01X10636Y-2000D01*
G01X10636Y-2000D02*
G01X10727Y-1954D01*
G01X10727Y-1954D02*
G01X10818Y-1863D01*
G01X11181Y-1363D02*
G01X11181Y-2000D01*
G01X11181Y-1636D02*
G01X11227Y-1500D01*
G01X11227Y-1500D02*
G01X11318Y-1409D01*
G01X11318Y-1409D02*
G01X11409Y-1363D01*
G01X11409Y-1363D02*
G01X11545Y-1363D01*
G01X12636Y-1045D02*
G01X12636Y-2000D01*
G01X12636Y-2000D02*
G01X13181Y-2000D01*
G01X14090Y-1363D02*
G01X14090Y-2000D01*
G01X14090Y-1500D02*
G01X13999Y-1409D01*
G01X13999Y-1409D02*
G01X13909Y-1363D01*
G01X13909Y-1363D02*
G01X13772Y-1363D01*
G01X13772Y-1363D02*
G01X13681Y-1409D01*
G01X13681Y-1409D02*
G01X13590Y-1500D01*
G01X13590Y-1500D02*
G01X13545Y-1636D01*
G01X13545Y-1636D02*
G01X13545Y-1727D01*
G01X13545Y-1727D02*
G01X13590Y-1863D01*
G01X13590Y-1863D02*
G01X13681Y-1954D01*
G01X13681Y-1954D02*
G01X13772Y-2000D01*
G01X13772Y-2000D02*
G01X13909Y-2000D01*
G01X13909Y-2000D02*
G01X13999Y-1954D01*
G01X13999Y-1954D02*
G01X14090Y-1863D01*
G01X14499Y-1363D02*
G01X14772Y-2000D01*
G01X15045Y-1363D02*
G01X14772Y-2000D01*
G01X14772Y-2000D02*
G01X14681Y-2181D01*
G01X14681Y-2181D02*
G01X14590Y-2272D01*
G01X14590Y-2272D02*
G01X14499Y-2318D01*
G01X14499Y-2318D02*
G01X14454Y-2318D01*
G01X15409Y-1636D02*
G01X15954Y-1636D01*
G01X15954Y-1636D02*
G01X15954Y-1545D01*
G01X15954Y-1545D02*
G01X15909Y-1454D01*
G01X15909Y-1454D02*
G01X15863Y-1409D01*
G01X15863Y-1409D02*
G01X15772Y-1363D01*
G01X15772Y-1363D02*
G01X15636Y-1363D01*
G01X15636Y-1363D02*
G01X15545Y-1409D01*
G01X15545Y-1409D02*
G01X15454Y-1500D01*
G01X15454Y-1500D02*
G01X15409Y-1636D01*
G01X15409Y-1636D02*
G01X15409Y-1727D01*
G01X15409Y-1727D02*
G01X15454Y-1863D01*
G01X15454Y-1863D02*
G01X15545Y-1954D01*
G01X15545Y-1954D02*
G01X15636Y-2000D01*
G01X15636Y-2000D02*
G01X15772Y-2000D01*
G01X15772Y-2000D02*
G01X15863Y-1954D01*
G01X15863Y-1954D02*
G01X15954Y-1863D01*
G01X16318Y-1363D02*
G01X16318Y-2000D01*
G01X16318Y-1636D02*
G01X16363Y-1500D01*
G01X16363Y-1500D02*
G01X16454Y-1409D01*
G01X16454Y-1409D02*
G01X16545Y-1363D01*
G01X16545Y-1363D02*
G01X16681Y-1363D01*

G04 Step and Repeat for panelization *

G04 ----------------------- Draw board outline (positive)*
%LPD*%
G54D12*
G01X0Y0D02*
G01X0Y20000D01*
G04 end of side 1*
G01X30000Y20000D01*
G04 end of side 2*
G01X30000Y0D01*
G04 end of side 3*
G01X0Y0D01*

G04 -------------- Draw Parts, Pads, Traces, Vias and Text (positive)*
%LPD*%
G04 Draw part C1*
G04 Draw part C2*
G04 Draw part C3*
G04 Draw part C4*
G04 Draw part D1*
G04 Draw part JP1*
G54D13*
G01X19000Y18000D03*
G54D14*
G01X19000Y19000D03*
G01X20000Y18000D03*
G01X20000Y19000D03*
G01X21000Y18000D03*
G01X21000Y19000D03*
G01X22000Y18000D03*
G01X22000Y19000D03*
G01X23000Y18000D03*
G01X23000Y19000D03*
G04 Draw part JP2*
G54D13*
G01X28000Y15000D03*
G54D14*
G01X29000Y15000D03*
G01X28000Y14000D03*
G01X29000Y14000D03*
G01X28000Y13000D03*
G01X29000Y13000D03*
G01X28000Y12000D03*
G01X29000Y12000D03*
G01X28000Y11000D03*
G01X29000Y11000D03*
G04 Draw part JP3*
G54D13*
G01X28000Y9000D03*
G54D14*
G01X29000Y9000D03*
G01X28000Y8000D03*
G01X29000Y8000D03*
G01X28000Y7000D03*
G01X29000Y7000D03*
G01X28000Y6000D03*
G01X29000Y6000D03*
G01X28000Y5000D03*
G01X29000Y5000D03*
G04 Draw part JP4*
G54D13*
G01X1000Y9000D03*
G54D14*
G01X2000Y9000D03*
G01X1000Y8000D03*
G01X2000Y8000D03*
G01X1000Y7000D03*
G01X2000Y7000D03*
G01X1000Y6000D03*
G01X2000Y6000D03*
G01X1000Y5000D03*
G01X2000Y5000D03*
G04 Draw part JP5*
G54D13*
G01X14000Y18000D03*
G54D14*
G01X14000Y19000D03*
G01X15000Y18000D03*
G01X15000Y19000D03*
G01X16000Y18000D03*
G01X16000Y19000D03*
G04 Draw part JP6*
G54D13*
G01X1000Y15000D03*
G54D14*
G01X1000Y14000D03*
G04 Draw part R1*
G04 Draw part R2*
G04 Draw part R3*
G04 Draw part U1*
G54D15*
G01X13000Y16000D03*
G54D16*
G01X13000Y15000D03*
G01X13000Y14000D03*
G01X13000Y13000D03*
G01X13000Y12000D03*
G01X13000Y11000D03*
G01X13000Y10000D03*
G01X13000Y9000D03*
G01X13000Y8000D03*
G01X13000Y7000D03*
G01X13000Y6000D03*
G01X13000Y5000D03*
G01X13000Y4000D03*
G01X13000Y3000D03*
G01X16000Y3000D03*
G01X16000Y4000D03*
G01X16000Y5000D03*
G01X16000Y6000D03*
G01X16000Y7000D03*
G01X16000Y8000D03*
G01X16000Y9000D03*
G01X16000Y10000D03*
G01X16000Y11000D03*
G01X16000Y12000D03*
G01X16000Y13000D03*
G01X16000Y14000D03*
G01X16000Y15000D03*
G01X16000Y16000D03*
G04 Draw part U3*
G54D17*
G01X10000Y15000D03*
G01X10000Y16000D03*
G01X10000Y17000D03*
G04 Draw part Y1*
G54D15*
G01X8000Y11000D03*
G54D16*
G01X8000Y10000D03*
G01X8000Y9000D03*
G01X8000Y8000D03*
G01X11000Y8000D03*
G01X11000Y9000D03*
G01X11000Y10000D03*
G01X11000Y11000D03*
G04 Draw part H1*
G54D18*
G01X1500Y1500D03*
G04 Draw part H2*
G01X1500Y18500D03*
G04 Draw part H3*
G01X28500Y18500D03*
G04 Draw part H4*
G01X28500Y1500D03*
G04 Draw part C5*
G04 Draw part C6*
G04 Draw part C7*
G04 Draw part U2*
G54D15*
G01X19000Y14000D03*
G54D16*
G01X19000Y13000D03*
G01X19000Y12000D03*
G01X19000Y11000D03*
G01X19000Y10000D03*
G01X19000Y9000D03*
G01X19000Y8000D03*
G01X22000Y8000D03*
G01X22000Y9000D03*
G01X22000Y10000D03*
G01X22000Y11000D03*
G01X22000Y12000D03*
G01X22000Y13000D03*
G01X22000Y14000D03*

G04 Draw traces*
G54D11*
G01X13000Y14000D02*
G01X14950Y14000D01*
G01X14950Y14000D02*
G01X15450Y14500D01*
G01X15450Y14500D02*
G01X22650Y14500D01*
G01X22650Y14500D02*
G01X23150Y15000D01*
G01X23150Y15000D02*
G01X23800Y15000D01*
G54D19*
G01X23800Y15000D03*
G01X11450Y12450D03*
G01X16750Y8000D03*
G01X21850Y15800D03*
G01X6550Y9000D03*
G54D11*
G01X16000Y6000D02*
G01X21650Y6000D01*
G01X21650Y6000D02*
G01X26550Y10900D01*
G01X26550Y10900D02*
G01X26550Y13550D01*
G01X26550Y13550D02*
G01X28000Y15000D01*
G01X16000Y11000D02*
G01X17000Y11000D01*
G01X17000Y11000D02*
G01X18000Y10000D01*
G01X18000Y10000D02*
G01X19000Y10000D01*
G01X28000Y9000D02*
G01X25600Y9000D01*
G01X25600Y9000D02*
G01X21600Y5000D01*
G01X21600Y5000D02*
G01X16000Y5000D01*
G01X13000Y5000D02*
G01X14100Y5000D01*
G01X14100Y5000D02*
G01X14600Y5500D01*
G01X14600Y5500D02*
G01X21600Y5500D01*
G01X21600Y5500D02*
G01X27100Y11000D01*
G01X27100Y11000D02*
G01X27100Y12100D01*
G01X27100Y12100D02*
G01X28000Y13000D01*
G01X28000Y7000D02*
G01X24600Y7000D01*
G01X24600Y7000D02*
G01X22100Y4500D01*
G01X22100Y4500D02*
G01X15350Y4500D01*
G01X15350Y4500D02*
G01X14850Y4000D01*
G01X14850Y4000D02*
G01X13000Y4000D01*
G54D19*
G01X6000Y11000D03*
G01X7650Y12450D03*
G01X19200Y15800D03*
G01X17600Y6400D03*
G01X26000Y7450D03*
G01X26000Y10900D03*
G01X6550Y6250D03*
G01X26000Y4900D03*
G01X26000Y13450D03*

G04 Draw Text*

G04 ----------------------- Draw Pilot Holes (scratch)*
%LPC*%
G04 draw pilot holes for part C1*
G04 draw pilot holes for part C2*
G04 draw pilot holes for part C3*
G04 draw pilot holes for part C4*
G04 draw pilot holes for part D1*
G04 draw pilot holes for part JP1*
G54D11*
G01X19000Y18000D03*
G01X19000Y19000D03*
G01X20000Y18000D03*
G01X20000Y19000D03*
G01X21000Y18000D03*
G01X21000Y19000D03*
G01X22000Y18000D03*
G01X22000Y19000D03*
G01X23000Y18000D03*
G01X23000Y19000D03*
G04 draw pilot holes for part JP2*
G01X28000Y15000D03*
G01X29000Y15000D03*
G01X28000Y14000D03*
G01X29000Y14000D03*
G01X28000Y13000D03*
G01X29000Y13000D03*
G01X28000Y12000D03*
G01X29000Y12000D03*
G01X28000Y11000D03*
G01X29000Y11000D03*
G04 draw pilot holes for part JP3*
G01X28000Y9000D03*
G01X29000Y9000D03*
G01X28000Y8000D03*
G01X29000Y8000D03*
G01X28000Y7000D03*
G01X29000Y7000D03*
G01X28000Y6000D03*
G01X29000Y6000D03*
G01X28000Y5000D03*
G01X29000Y5000D03*
G04 draw pilot holes for part JP4*
G01X1000Y9000D03*
G01X2000Y9000D03*
G01X1000Y8000D03*
G01X2000Y8000D03*
G01X1000Y7000D03*
G01X2000Y7000D03*
G01X1000Y6000D03*
G01X2000Y6000D03*
G01X1000Y5000D03*
G01X2000Y5000D03*
G04 draw pilot holes for part JP5*
G01X14000Y18000D03*
G01X14000Y19000D03*
G01X15000Y18000D03*
G01X15000Y19000D03*
G01X16000Y18000D03*
G01X16000Y19000D03*
G04 draw pilot holes for part JP6*
G01X1000Y15000D03*
G01X1000Y14000D03*
G04 draw pilot holes for part R1*
G04 draw pilot holes for part R2*
G04 draw pilot holes for part R3*
G04 draw pilot holes for part U1*
G01X13000Y16000D03*
G01X13000Y15000D03*
G01X13000Y14000D03*
G01X13000Y13000D03*
G01X13000Y12000D03*
G01X13000Y11000D03*
G01X13000Y10000D03*
G01X13000Y9000D03*
G01X13000Y8000D03*
G01X13000Y7000D03*
G01X13000Y6000D03*
G01X13000Y5000D03*
G01X13000Y4000D03*
G01X13000Y3000D03*
G01X16000Y3000D03*
G01X16000Y4000D03*
G01X16000Y5000D03*
G01X16000Y6000D03*
G01X16000Y7000D03*
G01X16000Y8000D03*
G01X16000Y9000D03*
G01X16000Y10000D03*
G01X16000Y11000D03*
G01X16000Y12000D03*
G01X16000Y13000D03*
G01X16000Y14000D03*
G01X16000Y15000D03*
G01X16000Y16000D03*
G04 draw pilot holes for part U3*
G01X10000Y15000D03*
G01X10000Y16000D03*
G01X10000Y17000D03*
G04 draw pilot holes for part Y1*
G01X8000Y11000D03*
G01X8000Y10000D03*
G01X8000Y9000D03*
G01X8000Y8000D03*
G01X11000Y8000D03*
G01X11000Y9000D03*
G01X11000Y10000D03*
G01X11000Y11000D03*
G04 draw pilot holes for part H1*
G01X1500Y1500D03*
G04 draw pilot holes for part H2*
G01X1500Y18500D03*
G04 draw pilot holes for part H3*
G01X28500Y18500D03*
G04 draw pilot holes for part H4*
G01X28500Y1500D03*
G04 draw pilot holes for part C5*
G04 draw pilot holes for part C6*
G04 draw pilot holes for part C7*
G04 draw pilot holes for part U2*
G01X19000Y14000D03*
G01X19000Y13000D03*
G01X19000Y12000D03*
G01X19000Y11000D03*
G01X19000Y10000D03*
G01X19000Y9000D03*
G01X19000Y8000D03*
G01X22000Y8000D03*
G01X22000Y9000D03*
G01X22000Y10000D03*
G01X22000Y11000D03*
G01X22000Y12000D03*
G01X22000Y13000D03*
G01X22000Y14000D03*

G04 Draw pilot holes for vias*
G01X23800Y15000D03*
G01X11450Y12450D03*
G01X16750Y8000D03*
G01X21850Y15800D03*
G01X6550Y9000D03*
G01X6000Y11000D03*
G01X7650Y12450D03*
G01X19200Y15800D03*
G01X17600Y6400D03*
G01X26000Y7450D03*
G01X26000Y10900D03*
G01X6550Y6250D03*
G01X26000Y4900D03*
G01X26000Y13450D03*
M00*
M02*
