G04 FreePCB version 1.359*
G04 C:\Users\Adam\Desktop\Magisterka\FreePCB project01\bottom_silk.grb*
G04 bottom silk layer *
G04 Scale: 100 percent, Rotated: No, Reflected: No *
%FSLAX24Y24*%
%MOIN*%
%LN bottom silk *%
G04 Rounded Rectangle Macro, params: W/2, H/2, R *
%AMRNDREC*
21,1,$1+$1,$2+$2-$3-$3,0,0,0*
21,1,$1+$1-$3-$3,$2+$2,0,0,0*
1,1,$3+$3,$1-$3,$2-$3*
1,1,$3+$3,$3-$1,$2-$3*
1,1,$3+$3,$1-$3,$3-$2*
1,1,$3+$3,$3-$1,$3-$2*%
G04 Rectangular Thermal Macro, params: W/2, H/2, T/2 *
%AMRECTHERM*
$4=$3/2*
21,1,$1-$3,$2-$3,0-$1/2-$4,0-$2/2-$4,0*
21,1,$1-$3,$2-$3,0-$1/2-$4,$2/2+$4,0*
21,1,$1-$3,$2-$3,$1/2+$4,0-$2/2-$4,0*
21,1,$1-$3,$2-$3,$1/2+$4,$2/2+$4,0*%
%AMMOIRE10*6,0,0,0.350000,0.005,0.050,3,0.005,0.400000,0.0*%
%ADD10MOIRE10*%
%ADD11C,0.010000*%
%ADD12C,0.005000*%
G90*
G70D02*

G04 ----------------------- Draw moires (positive)*
%LPD*%
G54D10*
G01X-5000Y0D03*
G01X35000Y0D03*
G01X-5000Y20000D03*

G04 Draw Layer Name*
G54D11*
G01X0Y-1045D02*
G01X0Y-2000D01*
G01X0Y-1045D02*
G01X409Y-1045D01*
G01X409Y-1045D02*
G01X545Y-1090D01*
G01X545Y-1090D02*
G01X590Y-1136D01*
G01X590Y-1136D02*
G01X636Y-1227D01*
G01X636Y-1227D02*
G01X636Y-1318D01*
G01X636Y-1318D02*
G01X590Y-1409D01*
G01X590Y-1409D02*
G01X545Y-1454D01*
G01X545Y-1454D02*
G01X409Y-1500D01*
G01X0Y-1500D02*
G01X409Y-1500D01*
G01X409Y-1500D02*
G01X545Y-1545D01*
G01X545Y-1545D02*
G01X590Y-1590D01*
G01X590Y-1590D02*
G01X636Y-1681D01*
G01X636Y-1681D02*
G01X636Y-1818D01*
G01X636Y-1818D02*
G01X590Y-1909D01*
G01X590Y-1909D02*
G01X545Y-1954D01*
G01X545Y-1954D02*
G01X409Y-2000D01*
G01X409Y-2000D02*
G01X0Y-2000D01*
G01X1227Y-1363D02*
G01X1136Y-1409D01*
G01X1136Y-1409D02*
G01X1045Y-1500D01*
G01X1045Y-1500D02*
G01X1000Y-1636D01*
G01X1000Y-1636D02*
G01X1000Y-1727D01*
G01X1000Y-1727D02*
G01X1045Y-1863D01*
G01X1045Y-1863D02*
G01X1136Y-1954D01*
G01X1136Y-1954D02*
G01X1227Y-2000D01*
G01X1227Y-2000D02*
G01X1363Y-2000D01*
G01X1363Y-2000D02*
G01X1454Y-1954D01*
G01X1454Y-1954D02*
G01X1545Y-1863D01*
G01X1545Y-1863D02*
G01X1590Y-1727D01*
G01X1590Y-1727D02*
G01X1590Y-1636D01*
G01X1590Y-1636D02*
G01X1545Y-1500D01*
G01X1545Y-1500D02*
G01X1454Y-1409D01*
G01X1454Y-1409D02*
G01X1363Y-1363D01*
G01X1363Y-1363D02*
G01X1227Y-1363D01*
G01X2090Y-1045D02*
G01X2090Y-1818D01*
G01X2090Y-1818D02*
G01X2136Y-1954D01*
G01X2136Y-1954D02*
G01X2227Y-2000D01*
G01X2227Y-2000D02*
G01X2318Y-2000D01*
G01X1954Y-1363D02*
G01X2272Y-1363D01*
G01X2818Y-1045D02*
G01X2818Y-1818D01*
G01X2818Y-1818D02*
G01X2863Y-1954D01*
G01X2863Y-1954D02*
G01X2954Y-2000D01*
G01X2954Y-2000D02*
G01X3045Y-2000D01*
G01X2681Y-1363D02*
G01X2999Y-1363D01*
G01X3636Y-1363D02*
G01X3545Y-1409D01*
G01X3545Y-1409D02*
G01X3454Y-1500D01*
G01X3454Y-1500D02*
G01X3409Y-1636D01*
G01X3409Y-1636D02*
G01X3409Y-1727D01*
G01X3409Y-1727D02*
G01X3454Y-1863D01*
G01X3454Y-1863D02*
G01X3545Y-1954D01*
G01X3545Y-1954D02*
G01X3636Y-2000D01*
G01X3636Y-2000D02*
G01X3772Y-2000D01*
G01X3772Y-2000D02*
G01X3863Y-1954D01*
G01X3863Y-1954D02*
G01X3954Y-1863D01*
G01X3954Y-1863D02*
G01X3999Y-1727D01*
G01X3999Y-1727D02*
G01X3999Y-1636D01*
G01X3999Y-1636D02*
G01X3954Y-1500D01*
G01X3954Y-1500D02*
G01X3863Y-1409D01*
G01X3863Y-1409D02*
G01X3772Y-1363D01*
G01X3772Y-1363D02*
G01X3636Y-1363D01*
G01X4363Y-1363D02*
G01X4363Y-2000D01*
G01X4363Y-1545D02*
G01X4499Y-1409D01*
G01X4499Y-1409D02*
G01X4590Y-1363D01*
G01X4590Y-1363D02*
G01X4727Y-1363D01*
G01X4727Y-1363D02*
G01X4818Y-1409D01*
G01X4818Y-1409D02*
G01X4863Y-1545D01*
G01X4863Y-1545D02*
G01X4863Y-2000D01*
G01X4863Y-1545D02*
G01X4999Y-1409D01*
G01X4999Y-1409D02*
G01X5090Y-1363D01*
G01X5090Y-1363D02*
G01X5227Y-1363D01*
G01X5227Y-1363D02*
G01X5318Y-1409D01*
G01X5318Y-1409D02*
G01X5363Y-1545D01*
G01X5363Y-1545D02*
G01X5363Y-2000D01*
G01X7090Y-1181D02*
G01X6999Y-1090D01*
G01X6999Y-1090D02*
G01X6863Y-1045D01*
G01X6863Y-1045D02*
G01X6681Y-1045D01*
G01X6681Y-1045D02*
G01X6545Y-1090D01*
G01X6545Y-1090D02*
G01X6454Y-1181D01*
G01X6454Y-1181D02*
G01X6454Y-1272D01*
G01X6454Y-1272D02*
G01X6499Y-1363D01*
G01X6499Y-1363D02*
G01X6545Y-1409D01*
G01X6545Y-1409D02*
G01X6636Y-1454D01*
G01X6636Y-1454D02*
G01X6909Y-1545D01*
G01X6909Y-1545D02*
G01X6999Y-1590D01*
G01X6999Y-1590D02*
G01X7045Y-1636D01*
G01X7045Y-1636D02*
G01X7090Y-1727D01*
G01X7090Y-1727D02*
G01X7090Y-1863D01*
G01X7090Y-1863D02*
G01X6999Y-1954D01*
G01X6999Y-1954D02*
G01X6863Y-2000D01*
G01X6863Y-2000D02*
G01X6681Y-2000D01*
G01X6681Y-2000D02*
G01X6545Y-1954D01*
G01X6545Y-1954D02*
G01X6454Y-1863D01*
G01X7454Y-1045D02*
G01X7499Y-1090D01*
G01X7499Y-1090D02*
G01X7545Y-1045D01*
G01X7545Y-1045D02*
G01X7499Y-1000D01*
G01X7499Y-1000D02*
G01X7454Y-1045D01*
G01X7499Y-1363D02*
G01X7499Y-2000D01*
G01X7909Y-1045D02*
G01X7909Y-2000D01*
G01X8272Y-1045D02*
G01X8272Y-2000D01*
G01X8727Y-1363D02*
G01X8272Y-1818D01*
G01X8454Y-1636D02*
G01X8772Y-2000D01*
G01X9636Y-1500D02*
G01X9590Y-1409D01*
G01X9590Y-1409D02*
G01X9454Y-1363D01*
G01X9454Y-1363D02*
G01X9318Y-1363D01*
G01X9318Y-1363D02*
G01X9181Y-1409D01*
G01X9181Y-1409D02*
G01X9136Y-1500D01*
G01X9136Y-1500D02*
G01X9181Y-1590D01*
G01X9181Y-1590D02*
G01X9272Y-1636D01*
G01X9272Y-1636D02*
G01X9499Y-1681D01*
G01X9499Y-1681D02*
G01X9590Y-1727D01*
G01X9590Y-1727D02*
G01X9636Y-1818D01*
G01X9636Y-1818D02*
G01X9636Y-1863D01*
G01X9636Y-1863D02*
G01X9590Y-1954D01*
G01X9590Y-1954D02*
G01X9454Y-2000D01*
G01X9454Y-2000D02*
G01X9318Y-2000D01*
G01X9318Y-2000D02*
G01X9181Y-1954D01*
G01X9181Y-1954D02*
G01X9136Y-1863D01*
G01X10545Y-1500D02*
G01X10454Y-1409D01*
G01X10454Y-1409D02*
G01X10363Y-1363D01*
G01X10363Y-1363D02*
G01X10227Y-1363D01*
G01X10227Y-1363D02*
G01X10136Y-1409D01*
G01X10136Y-1409D02*
G01X10045Y-1500D01*
G01X10045Y-1500D02*
G01X9999Y-1636D01*
G01X9999Y-1636D02*
G01X9999Y-1727D01*
G01X9999Y-1727D02*
G01X10045Y-1863D01*
G01X10045Y-1863D02*
G01X10136Y-1954D01*
G01X10136Y-1954D02*
G01X10227Y-2000D01*
G01X10227Y-2000D02*
G01X10363Y-2000D01*
G01X10363Y-2000D02*
G01X10454Y-1954D01*
G01X10454Y-1954D02*
G01X10545Y-1863D01*
G01X10909Y-1363D02*
G01X10909Y-2000D01*
G01X10909Y-1636D02*
G01X10954Y-1500D01*
G01X10954Y-1500D02*
G01X11045Y-1409D01*
G01X11045Y-1409D02*
G01X11136Y-1363D01*
G01X11136Y-1363D02*
G01X11272Y-1363D01*
G01X11636Y-1636D02*
G01X12181Y-1636D01*
G01X12181Y-1636D02*
G01X12181Y-1545D01*
G01X12181Y-1545D02*
G01X12136Y-1454D01*
G01X12136Y-1454D02*
G01X12090Y-1409D01*
G01X12090Y-1409D02*
G01X11999Y-1363D01*
G01X11999Y-1363D02*
G01X11863Y-1363D01*
G01X11863Y-1363D02*
G01X11772Y-1409D01*
G01X11772Y-1409D02*
G01X11681Y-1500D01*
G01X11681Y-1500D02*
G01X11636Y-1636D01*
G01X11636Y-1636D02*
G01X11636Y-1727D01*
G01X11636Y-1727D02*
G01X11681Y-1863D01*
G01X11681Y-1863D02*
G01X11772Y-1954D01*
G01X11772Y-1954D02*
G01X11863Y-2000D01*
G01X11863Y-2000D02*
G01X11999Y-2000D01*
G01X11999Y-2000D02*
G01X12090Y-1954D01*
G01X12090Y-1954D02*
G01X12181Y-1863D01*
G01X12545Y-1636D02*
G01X13090Y-1636D01*
G01X13090Y-1636D02*
G01X13090Y-1545D01*
G01X13090Y-1545D02*
G01X13045Y-1454D01*
G01X13045Y-1454D02*
G01X12999Y-1409D01*
G01X12999Y-1409D02*
G01X12909Y-1363D01*
G01X12909Y-1363D02*
G01X12772Y-1363D01*
G01X12772Y-1363D02*
G01X12681Y-1409D01*
G01X12681Y-1409D02*
G01X12590Y-1500D01*
G01X12590Y-1500D02*
G01X12545Y-1636D01*
G01X12545Y-1636D02*
G01X12545Y-1727D01*
G01X12545Y-1727D02*
G01X12590Y-1863D01*
G01X12590Y-1863D02*
G01X12681Y-1954D01*
G01X12681Y-1954D02*
G01X12772Y-2000D01*
G01X12772Y-2000D02*
G01X12909Y-2000D01*
G01X12909Y-2000D02*
G01X12999Y-1954D01*
G01X12999Y-1954D02*
G01X13090Y-1863D01*
G01X13454Y-1363D02*
G01X13454Y-2000D01*
G01X13454Y-1545D02*
G01X13590Y-1409D01*
G01X13590Y-1409D02*
G01X13681Y-1363D01*
G01X13681Y-1363D02*
G01X13818Y-1363D01*
G01X13818Y-1363D02*
G01X13909Y-1409D01*
G01X13909Y-1409D02*
G01X13954Y-1545D01*
G01X13954Y-1545D02*
G01X13954Y-2000D01*

G04 Step and Repeat for panelization *

G04 ----------------------- Draw board outline (positive)*
%LPD*%
G54D12*
G01X0Y0D02*
G01X0Y20000D01*
G04 end of side 1*
G01X30000Y20000D01*
G04 end of side 2*
G01X30000Y0D01*
G04 end of side 3*
G01X0Y0D01*

G04 -------------- Draw Parts, Pads, Traces, Vias and Text (positive)*
%LPD*%
G04 Draw part C1*
G04 Draw part C2*
G04 Draw part C3*
G04 Draw part C4*
G04 Draw part D1*
G04 Draw part JP1*
G04 Draw part JP2*
G04 Draw part JP3*
G04 Draw part JP4*
G04 Draw part JP5*
G04 Draw part JP6*
G04 Draw part R1*
G04 Draw part R2*
G04 Draw part R3*
G04 Draw part U1*
G04 Draw part U3*
G04 Draw part Y1*
G04 Draw part H1*
G04 Draw part H2*
G04 Draw part H3*
G04 Draw part H4*
G04 Draw part C5*
G04 Draw part C6*
G04 Draw part C7*
G04 Draw part U2*

G04 Draw traces*

G04 Draw Text*
M00*
M02*
