;Holesize 1 =   28.0 PLATED MILS
;Holesize 2 =   45.0 PLATED MILS
;Holesize 3 =  125.0 PLATED MILS
;Holesize 4 =   14.0 PLATED MILS
M48
INCH,00.0000
T01C0.028
T02C0.045
T03C0.125
T04C0.014
%
G05
G90
T01
X019000Y018000
X019000Y019000
X020000Y018000
X020000Y019000
X021000Y018000
X021000Y019000
X022000Y018000
X022000Y019000
X023000Y018000
X023000Y019000
X028000Y015000
X029000Y015000
X028000Y014000
X029000Y014000
X028000Y013000
X029000Y013000
X028000Y012000
X029000Y012000
X028000Y011000
X029000Y011000
X028000Y009000
X029000Y009000
X028000Y008000
X029000Y008000
X028000Y007000
X029000Y007000
X028000Y006000
X029000Y006000
X028000Y005000
X029000Y005000
X001000Y009000
X002000Y009000
X001000Y008000
X002000Y008000
X001000Y007000
X002000Y007000
X001000Y006000
X002000Y006000
X001000Y005000
X002000Y005000
X014000Y018000
X014000Y019000
X015000Y018000
X015000Y019000
X016000Y018000
X016000Y019000
X001000Y015000
X001000Y014000
X013000Y016000
X013000Y015000
X013000Y014000
X013000Y013000
X013000Y012000
X013000Y011000
X013000Y010000
X013000Y009000
X013000Y008000
X013000Y007000
X013000Y006000
X013000Y005000
X013000Y004000
X013000Y003000
X016000Y003000
X016000Y004000
X016000Y005000
X016000Y006000
X016000Y007000
X016000Y008000
X016000Y009000
X016000Y010000
X016000Y011000
X016000Y012000
X016000Y013000
X016000Y014000
X016000Y015000
X016000Y016000
X008000Y011000
X008000Y010000
X008000Y009000
X008000Y008000
X011000Y008000
X011000Y009000
X011000Y010000
X011000Y011000
X019000Y014000
X019000Y013000
X019000Y012000
X019000Y011000
X019000Y010000
X019000Y009000
X019000Y008000
X022000Y008000
X022000Y009000
X022000Y010000
X022000Y011000
X022000Y012000
X022000Y013000
X022000Y014000
T02
X010000Y015000
X010000Y016000
X010000Y017000
T03
X001500Y001500
X001500Y018500
X028500Y018500
X028500Y001500
T04
X023800Y015000
X011450Y012450
X016750Y008000
X021850Y015800
X006550Y009000
X006000Y011000
X007650Y012450
X019200Y015800
X017600Y006400
X026000Y007450
X026000Y010900
X006550Y006250
X026000Y004900
X026000Y013450
M30
