G04 FreePCB version 1.359*
G04 C:\Users\Adam\Desktop\Magisterka\FreePCB project01\top_silk.grb*
G04 top silk layer *
G04 Scale: 100 percent, Rotated: No, Reflected: No *
%FSLAX24Y24*%
%MOIN*%
%LN top silk *%
G04 Rounded Rectangle Macro, params: W/2, H/2, R *
%AMRNDREC*
21,1,$1+$1,$2+$2-$3-$3,0,0,0*
21,1,$1+$1-$3-$3,$2+$2,0,0,0*
1,1,$3+$3,$1-$3,$2-$3*
1,1,$3+$3,$3-$1,$2-$3*
1,1,$3+$3,$1-$3,$3-$2*
1,1,$3+$3,$3-$1,$3-$2*%
G04 Rectangular Thermal Macro, params: W/2, H/2, T/2 *
%AMRECTHERM*
$4=$3/2*
21,1,$1-$3,$2-$3,0-$1/2-$4,0-$2/2-$4,0*
21,1,$1-$3,$2-$3,0-$1/2-$4,$2/2+$4,0*
21,1,$1-$3,$2-$3,$1/2+$4,0-$2/2-$4,0*
21,1,$1-$3,$2-$3,$1/2+$4,$2/2+$4,0*%
%AMMOIRE10*6,0,0,0.350000,0.005,0.050,3,0.005,0.400000,0.0*%
%ADD10MOIRE10*%
%ADD11C,0.010000*%
%ADD12C,0.005000*%
%ADD13C,0.012000*%
G90*
G70D02*

G04 ----------------------- Draw moires (positive)*
%LPD*%
G54D10*
G01X-5000Y0D03*
G01X35000Y0D03*
G01X-5000Y20000D03*

G04 Draw Layer Name*
G54D11*
G01X318Y-1045D02*
G01X318Y-2000D01*
G01X0Y-1045D02*
G01X636Y-1045D01*
G01X1227Y-1363D02*
G01X1136Y-1409D01*
G01X1136Y-1409D02*
G01X1045Y-1500D01*
G01X1045Y-1500D02*
G01X1000Y-1636D01*
G01X1000Y-1636D02*
G01X1000Y-1727D01*
G01X1000Y-1727D02*
G01X1045Y-1863D01*
G01X1045Y-1863D02*
G01X1136Y-1954D01*
G01X1136Y-1954D02*
G01X1227Y-2000D01*
G01X1227Y-2000D02*
G01X1363Y-2000D01*
G01X1363Y-2000D02*
G01X1454Y-1954D01*
G01X1454Y-1954D02*
G01X1545Y-1863D01*
G01X1545Y-1863D02*
G01X1590Y-1727D01*
G01X1590Y-1727D02*
G01X1590Y-1636D01*
G01X1590Y-1636D02*
G01X1545Y-1500D01*
G01X1545Y-1500D02*
G01X1454Y-1409D01*
G01X1454Y-1409D02*
G01X1363Y-1363D01*
G01X1363Y-1363D02*
G01X1227Y-1363D01*
G01X1954Y-1363D02*
G01X1954Y-2318D01*
G01X1954Y-1500D02*
G01X2045Y-1409D01*
G01X2045Y-1409D02*
G01X2136Y-1363D01*
G01X2136Y-1363D02*
G01X2272Y-1363D01*
G01X2272Y-1363D02*
G01X2363Y-1409D01*
G01X2363Y-1409D02*
G01X2454Y-1500D01*
G01X2454Y-1500D02*
G01X2499Y-1636D01*
G01X2499Y-1636D02*
G01X2499Y-1727D01*
G01X2499Y-1727D02*
G01X2454Y-1863D01*
G01X2454Y-1863D02*
G01X2363Y-1954D01*
G01X2363Y-1954D02*
G01X2272Y-2000D01*
G01X2272Y-2000D02*
G01X2136Y-2000D01*
G01X2136Y-2000D02*
G01X2045Y-1954D01*
G01X2045Y-1954D02*
G01X1954Y-1863D01*
G01X4227Y-1181D02*
G01X4136Y-1090D01*
G01X4136Y-1090D02*
G01X3999Y-1045D01*
G01X3999Y-1045D02*
G01X3818Y-1045D01*
G01X3818Y-1045D02*
G01X3681Y-1090D01*
G01X3681Y-1090D02*
G01X3590Y-1181D01*
G01X3590Y-1181D02*
G01X3590Y-1272D01*
G01X3590Y-1272D02*
G01X3636Y-1363D01*
G01X3636Y-1363D02*
G01X3681Y-1409D01*
G01X3681Y-1409D02*
G01X3772Y-1454D01*
G01X3772Y-1454D02*
G01X4045Y-1545D01*
G01X4045Y-1545D02*
G01X4136Y-1590D01*
G01X4136Y-1590D02*
G01X4181Y-1636D01*
G01X4181Y-1636D02*
G01X4227Y-1727D01*
G01X4227Y-1727D02*
G01X4227Y-1863D01*
G01X4227Y-1863D02*
G01X4136Y-1954D01*
G01X4136Y-1954D02*
G01X3999Y-2000D01*
G01X3999Y-2000D02*
G01X3818Y-2000D01*
G01X3818Y-2000D02*
G01X3681Y-1954D01*
G01X3681Y-1954D02*
G01X3590Y-1863D01*
G01X4590Y-1045D02*
G01X4636Y-1090D01*
G01X4636Y-1090D02*
G01X4681Y-1045D01*
G01X4681Y-1045D02*
G01X4636Y-1000D01*
G01X4636Y-1000D02*
G01X4590Y-1045D01*
G01X4636Y-1363D02*
G01X4636Y-2000D01*
G01X5045Y-1045D02*
G01X5045Y-2000D01*
G01X5409Y-1045D02*
G01X5409Y-2000D01*
G01X5863Y-1363D02*
G01X5409Y-1818D01*
G01X5590Y-1636D02*
G01X5909Y-2000D01*
G01X6772Y-1500D02*
G01X6727Y-1409D01*
G01X6727Y-1409D02*
G01X6590Y-1363D01*
G01X6590Y-1363D02*
G01X6454Y-1363D01*
G01X6454Y-1363D02*
G01X6318Y-1409D01*
G01X6318Y-1409D02*
G01X6272Y-1500D01*
G01X6272Y-1500D02*
G01X6318Y-1590D01*
G01X6318Y-1590D02*
G01X6409Y-1636D01*
G01X6409Y-1636D02*
G01X6636Y-1681D01*
G01X6636Y-1681D02*
G01X6727Y-1727D01*
G01X6727Y-1727D02*
G01X6772Y-1818D01*
G01X6772Y-1818D02*
G01X6772Y-1863D01*
G01X6772Y-1863D02*
G01X6727Y-1954D01*
G01X6727Y-1954D02*
G01X6590Y-2000D01*
G01X6590Y-2000D02*
G01X6454Y-2000D01*
G01X6454Y-2000D02*
G01X6318Y-1954D01*
G01X6318Y-1954D02*
G01X6272Y-1863D01*
G01X7681Y-1500D02*
G01X7590Y-1409D01*
G01X7590Y-1409D02*
G01X7499Y-1363D01*
G01X7499Y-1363D02*
G01X7363Y-1363D01*
G01X7363Y-1363D02*
G01X7272Y-1409D01*
G01X7272Y-1409D02*
G01X7181Y-1500D01*
G01X7181Y-1500D02*
G01X7136Y-1636D01*
G01X7136Y-1636D02*
G01X7136Y-1727D01*
G01X7136Y-1727D02*
G01X7181Y-1863D01*
G01X7181Y-1863D02*
G01X7272Y-1954D01*
G01X7272Y-1954D02*
G01X7363Y-2000D01*
G01X7363Y-2000D02*
G01X7499Y-2000D01*
G01X7499Y-2000D02*
G01X7590Y-1954D01*
G01X7590Y-1954D02*
G01X7681Y-1863D01*
G01X8045Y-1363D02*
G01X8045Y-2000D01*
G01X8045Y-1636D02*
G01X8090Y-1500D01*
G01X8090Y-1500D02*
G01X8181Y-1409D01*
G01X8181Y-1409D02*
G01X8272Y-1363D01*
G01X8272Y-1363D02*
G01X8409Y-1363D01*
G01X8772Y-1636D02*
G01X9318Y-1636D01*
G01X9318Y-1636D02*
G01X9318Y-1545D01*
G01X9318Y-1545D02*
G01X9272Y-1454D01*
G01X9272Y-1454D02*
G01X9227Y-1409D01*
G01X9227Y-1409D02*
G01X9136Y-1363D01*
G01X9136Y-1363D02*
G01X8999Y-1363D01*
G01X8999Y-1363D02*
G01X8909Y-1409D01*
G01X8909Y-1409D02*
G01X8818Y-1500D01*
G01X8818Y-1500D02*
G01X8772Y-1636D01*
G01X8772Y-1636D02*
G01X8772Y-1727D01*
G01X8772Y-1727D02*
G01X8818Y-1863D01*
G01X8818Y-1863D02*
G01X8909Y-1954D01*
G01X8909Y-1954D02*
G01X8999Y-2000D01*
G01X8999Y-2000D02*
G01X9136Y-2000D01*
G01X9136Y-2000D02*
G01X9227Y-1954D01*
G01X9227Y-1954D02*
G01X9318Y-1863D01*
G01X9681Y-1636D02*
G01X10227Y-1636D01*
G01X10227Y-1636D02*
G01X10227Y-1545D01*
G01X10227Y-1545D02*
G01X10181Y-1454D01*
G01X10181Y-1454D02*
G01X10136Y-1409D01*
G01X10136Y-1409D02*
G01X10045Y-1363D01*
G01X10045Y-1363D02*
G01X9909Y-1363D01*
G01X9909Y-1363D02*
G01X9818Y-1409D01*
G01X9818Y-1409D02*
G01X9727Y-1500D01*
G01X9727Y-1500D02*
G01X9681Y-1636D01*
G01X9681Y-1636D02*
G01X9681Y-1727D01*
G01X9681Y-1727D02*
G01X9727Y-1863D01*
G01X9727Y-1863D02*
G01X9818Y-1954D01*
G01X9818Y-1954D02*
G01X9909Y-2000D01*
G01X9909Y-2000D02*
G01X10045Y-2000D01*
G01X10045Y-2000D02*
G01X10136Y-1954D01*
G01X10136Y-1954D02*
G01X10227Y-1863D01*
G01X10590Y-1363D02*
G01X10590Y-2000D01*
G01X10590Y-1545D02*
G01X10727Y-1409D01*
G01X10727Y-1409D02*
G01X10818Y-1363D01*
G01X10818Y-1363D02*
G01X10954Y-1363D01*
G01X10954Y-1363D02*
G01X11045Y-1409D01*
G01X11045Y-1409D02*
G01X11090Y-1545D01*
G01X11090Y-1545D02*
G01X11090Y-2000D01*

G04 Step and Repeat for panelization *

G04 ----------------------- Draw board outline (positive)*
%LPD*%
G54D12*
G01X0Y0D02*
G01X0Y20000D01*
G04 end of side 1*
G01X30000Y20000D01*
G04 end of side 2*
G01X30000Y0D01*
G04 end of side 3*
G01X0Y0D01*

G04 -------------- Draw Parts, Pads, Traces, Vias and Text (positive)*
%LPD*%
G04 Draw part C1*
G04 draw part outline for part C1*
G54D13*
G01X6040Y9570D02*
G01X6040Y5670D01*
G01X6040Y5670D02*
G01X4760Y5670D01*
G01X4760Y5670D02*
G01X4760Y9570D01*
G01X4760Y9570D02*
G01X6040Y9570D01*
G04 draw reference designator for part C1*
G01X3918Y7609D02*
G01X3940Y7563D01*
G01X3872Y7654D02*
G01X3918Y7609D01*
G01X3827Y7677D02*
G01X3872Y7654D01*
G01X3736Y7677D02*
G01X3827Y7677D01*
G01X3736Y7677D02*
G01X3690Y7654D01*
G01X3690Y7654D02*
G01X3645Y7609D01*
G01X3645Y7609D02*
G01X3622Y7563D01*
G01X3622Y7563D02*
G01X3600Y7495D01*
G01X3600Y7495D02*
G01X3600Y7381D01*
G01X3600Y7381D02*
G01X3622Y7313D01*
G01X3622Y7313D02*
G01X3645Y7268D01*
G01X3645Y7268D02*
G01X3690Y7222D01*
G01X3690Y7222D02*
G01X3736Y7200D01*
G01X3827Y7200D02*
G01X3736Y7200D01*
G01X3872Y7222D02*
G01X3827Y7200D01*
G01X3918Y7268D02*
G01X3872Y7222D01*
G01X3940Y7313D02*
G01X3918Y7268D01*
G01X4168Y7609D02*
G01X4122Y7586D01*
G01X4236Y7677D02*
G01X4168Y7609D01*
G01X4236Y7677D02*
G01X4236Y7200D01*
G04 Draw part C2*
G04 draw part outline for part C2*
G01X6511Y13433D02*
G01X6511Y11464D01*
G01X6511Y11464D02*
G01X5488Y11464D01*
G01X5488Y11464D02*
G01X5488Y13433D01*
G01X5488Y13433D02*
G01X6511Y13433D01*
G04 draw reference designator for part C2*
G01X4518Y12609D02*
G01X4540Y12563D01*
G01X4472Y12654D02*
G01X4518Y12609D01*
G01X4427Y12677D02*
G01X4472Y12654D01*
G01X4336Y12677D02*
G01X4427Y12677D01*
G01X4336Y12677D02*
G01X4290Y12654D01*
G01X4290Y12654D02*
G01X4245Y12609D01*
G01X4245Y12609D02*
G01X4222Y12563D01*
G01X4222Y12563D02*
G01X4200Y12495D01*
G01X4200Y12495D02*
G01X4200Y12381D01*
G01X4200Y12381D02*
G01X4222Y12313D01*
G01X4222Y12313D02*
G01X4245Y12268D01*
G01X4245Y12268D02*
G01X4290Y12222D01*
G01X4290Y12222D02*
G01X4336Y12200D01*
G01X4427Y12200D02*
G01X4336Y12200D01*
G01X4472Y12222D02*
G01X4427Y12200D01*
G01X4518Y12268D02*
G01X4472Y12222D01*
G01X4540Y12313D02*
G01X4518Y12268D01*
G01X4745Y12586D02*
G01X4745Y12563D01*
G01X4768Y12631D02*
G01X4745Y12586D01*
G01X4790Y12654D02*
G01X4768Y12631D01*
G01X4836Y12677D02*
G01X4790Y12654D01*
G01X4927Y12677D02*
G01X4836Y12677D01*
G01X4927Y12677D02*
G01X4972Y12654D01*
G01X4972Y12654D02*
G01X4995Y12631D01*
G01X4995Y12631D02*
G01X5018Y12586D01*
G01X5018Y12586D02*
G01X5018Y12540D01*
G01X5018Y12540D02*
G01X4995Y12495D01*
G01X4995Y12495D02*
G01X4950Y12427D01*
G01X4950Y12427D02*
G01X4722Y12200D01*
G01X5040Y12200D02*
G01X4722Y12200D01*
G04 Draw part C3*
G04 draw part outline for part C3*
G01X25590Y15450D02*
G01X25590Y12980D01*
G01X25590Y12980D02*
G01X24410Y12980D01*
G01X24410Y12980D02*
G01X24410Y15450D01*
G01X24410Y15450D02*
G01X25590Y15450D01*
G04 draw reference designator for part C3*
G01X23418Y14409D02*
G01X23440Y14363D01*
G01X23372Y14454D02*
G01X23418Y14409D01*
G01X23327Y14477D02*
G01X23372Y14454D01*
G01X23236Y14477D02*
G01X23327Y14477D01*
G01X23236Y14477D02*
G01X23190Y14454D01*
G01X23190Y14454D02*
G01X23145Y14409D01*
G01X23145Y14409D02*
G01X23122Y14363D01*
G01X23122Y14363D02*
G01X23100Y14295D01*
G01X23100Y14295D02*
G01X23100Y14181D01*
G01X23100Y14181D02*
G01X23122Y14113D01*
G01X23122Y14113D02*
G01X23145Y14068D01*
G01X23145Y14068D02*
G01X23190Y14022D01*
G01X23190Y14022D02*
G01X23236Y14000D01*
G01X23327Y14000D02*
G01X23236Y14000D01*
G01X23372Y14022D02*
G01X23327Y14000D01*
G01X23418Y14068D02*
G01X23372Y14022D01*
G01X23440Y14113D02*
G01X23418Y14068D01*
G01X23918Y14477D02*
G01X23668Y14477D01*
G01X23918Y14477D02*
G01X23781Y14295D01*
G01X23850Y14295D02*
G01X23781Y14295D01*
G01X23850Y14295D02*
G01X23895Y14272D01*
G01X23895Y14272D02*
G01X23918Y14250D01*
G01X23918Y14250D02*
G01X23940Y14181D01*
G01X23940Y14181D02*
G01X23940Y14136D01*
G01X23940Y14136D02*
G01X23918Y14068D01*
G01X23918Y14068D02*
G01X23872Y14022D01*
G01X23872Y14022D02*
G01X23804Y14000D01*
G01X23736Y14000D02*
G01X23804Y14000D01*
G01X23668Y14022D02*
G01X23736Y14000D01*
G01X23645Y14045D02*
G01X23668Y14022D01*
G01X23622Y14090D02*
G01X23645Y14045D01*
G04 Draw part C4*
G04 draw part outline for part C4*
G01X25590Y9450D02*
G01X25590Y6980D01*
G01X25590Y6980D02*
G01X24410Y6980D01*
G01X24410Y6980D02*
G01X24410Y9450D01*
G01X24410Y9450D02*
G01X25590Y9450D01*
G04 draw reference designator for part C4*
G01X23218Y8009D02*
G01X23240Y7963D01*
G01X23172Y8054D02*
G01X23218Y8009D01*
G01X23127Y8077D02*
G01X23172Y8054D01*
G01X23036Y8077D02*
G01X23127Y8077D01*
G01X23036Y8077D02*
G01X22990Y8054D01*
G01X22990Y8054D02*
G01X22945Y8009D01*
G01X22945Y8009D02*
G01X22922Y7963D01*
G01X22922Y7963D02*
G01X22900Y7895D01*
G01X22900Y7895D02*
G01X22900Y7781D01*
G01X22900Y7781D02*
G01X22922Y7713D01*
G01X22922Y7713D02*
G01X22945Y7668D01*
G01X22945Y7668D02*
G01X22990Y7622D01*
G01X22990Y7622D02*
G01X23036Y7600D01*
G01X23127Y7600D02*
G01X23036Y7600D01*
G01X23172Y7622D02*
G01X23127Y7600D01*
G01X23218Y7668D02*
G01X23172Y7622D01*
G01X23240Y7713D02*
G01X23218Y7668D01*
G01X23650Y8077D02*
G01X23422Y7759D01*
G01X23763Y7759D02*
G01X23422Y7759D01*
G01X23650Y8077D02*
G01X23650Y7600D01*
G04 Draw part D1*
G04 draw part outline for part D1*
G01X2550Y15590D02*
G01X5020Y15590D01*
G01X5020Y15590D02*
G01X5020Y14410D01*
G01X5020Y14410D02*
G01X2550Y14410D01*
G01X2550Y14410D02*
G01X2550Y15590D01*
G04 draw reference designator for part D1*
G01X3400Y16477D02*
G01X3400Y16000D01*
G01X3559Y16477D02*
G01X3400Y16477D01*
G01X3559Y16477D02*
G01X3627Y16454D01*
G01X3627Y16454D02*
G01X3672Y16409D01*
G01X3672Y16409D02*
G01X3695Y16363D01*
G01X3695Y16363D02*
G01X3718Y16295D01*
G01X3718Y16295D02*
G01X3718Y16181D01*
G01X3718Y16181D02*
G01X3695Y16113D01*
G01X3695Y16113D02*
G01X3672Y16068D01*
G01X3672Y16068D02*
G01X3627Y16022D01*
G01X3627Y16022D02*
G01X3559Y16000D01*
G01X3400Y16000D02*
G01X3559Y16000D01*
G01X3945Y16409D02*
G01X3900Y16386D01*
G01X4013Y16477D02*
G01X3945Y16409D01*
G01X4013Y16477D02*
G01X4013Y16000D01*
G04 Draw part JP1*
G04 draw part outline for part JP1*
G04 draw reference designator for part JP1*
G01X17427Y18677D02*
G01X17427Y18313D01*
G01X17427Y18313D02*
G01X17404Y18245D01*
G01X17404Y18245D02*
G01X17381Y18222D01*
G01X17381Y18222D02*
G01X17336Y18200D01*
G01X17290Y18200D02*
G01X17336Y18200D01*
G01X17245Y18222D02*
G01X17290Y18200D01*
G01X17222Y18245D02*
G01X17245Y18222D01*
G01X17200Y18313D02*
G01X17222Y18245D01*
G01X17200Y18359D02*
G01X17200Y18313D01*
G01X17609Y18677D02*
G01X17609Y18200D01*
G01X17813Y18677D02*
G01X17609Y18677D01*
G01X17813Y18677D02*
G01X17881Y18654D01*
G01X17881Y18654D02*
G01X17904Y18631D01*
G01X17904Y18631D02*
G01X17927Y18586D01*
G01X17927Y18586D02*
G01X17927Y18518D01*
G01X17927Y18518D02*
G01X17904Y18472D01*
G01X17904Y18472D02*
G01X17881Y18450D01*
G01X17881Y18450D02*
G01X17813Y18427D01*
G01X17609Y18427D02*
G01X17813Y18427D01*
G01X18154Y18609D02*
G01X18109Y18586D01*
G01X18222Y18677D02*
G01X18154Y18609D01*
G01X18222Y18677D02*
G01X18222Y18200D01*
G04 Draw part JP2*
G04 draw part outline for part JP2*
G04 draw reference designator for part JP2*
G01X28027Y16277D02*
G01X28027Y15913D01*
G01X28027Y15913D02*
G01X28004Y15845D01*
G01X28004Y15845D02*
G01X27981Y15822D01*
G01X27981Y15822D02*
G01X27936Y15800D01*
G01X27890Y15800D02*
G01X27936Y15800D01*
G01X27845Y15822D02*
G01X27890Y15800D01*
G01X27822Y15845D02*
G01X27845Y15822D01*
G01X27800Y15913D02*
G01X27822Y15845D01*
G01X27800Y15959D02*
G01X27800Y15913D01*
G01X28209Y16277D02*
G01X28209Y15800D01*
G01X28413Y16277D02*
G01X28209Y16277D01*
G01X28413Y16277D02*
G01X28481Y16254D01*
G01X28481Y16254D02*
G01X28504Y16231D01*
G01X28504Y16231D02*
G01X28527Y16186D01*
G01X28527Y16186D02*
G01X28527Y16118D01*
G01X28527Y16118D02*
G01X28504Y16072D01*
G01X28504Y16072D02*
G01X28481Y16050D01*
G01X28481Y16050D02*
G01X28413Y16027D01*
G01X28209Y16027D02*
G01X28413Y16027D01*
G01X28731Y16186D02*
G01X28731Y16163D01*
G01X28754Y16231D02*
G01X28731Y16186D01*
G01X28777Y16254D02*
G01X28754Y16231D01*
G01X28822Y16277D02*
G01X28777Y16254D01*
G01X28913Y16277D02*
G01X28822Y16277D01*
G01X28913Y16277D02*
G01X28959Y16254D01*
G01X28959Y16254D02*
G01X28981Y16231D01*
G01X28981Y16231D02*
G01X29004Y16186D01*
G01X29004Y16186D02*
G01X29004Y16140D01*
G01X29004Y16140D02*
G01X28981Y16095D01*
G01X28981Y16095D02*
G01X28936Y16027D01*
G01X28936Y16027D02*
G01X28709Y15800D01*
G01X29027Y15800D02*
G01X28709Y15800D01*
G04 Draw part JP3*
G04 draw part outline for part JP3*
G04 draw reference designator for part JP3*
G01X28027Y4077D02*
G01X28027Y3713D01*
G01X28027Y3713D02*
G01X28004Y3645D01*
G01X28004Y3645D02*
G01X27981Y3622D01*
G01X27981Y3622D02*
G01X27936Y3600D01*
G01X27890Y3600D02*
G01X27936Y3600D01*
G01X27845Y3622D02*
G01X27890Y3600D01*
G01X27822Y3645D02*
G01X27845Y3622D01*
G01X27800Y3713D02*
G01X27822Y3645D01*
G01X27800Y3759D02*
G01X27800Y3713D01*
G01X28209Y4077D02*
G01X28209Y3600D01*
G01X28413Y4077D02*
G01X28209Y4077D01*
G01X28413Y4077D02*
G01X28481Y4054D01*
G01X28481Y4054D02*
G01X28504Y4031D01*
G01X28504Y4031D02*
G01X28527Y3986D01*
G01X28527Y3986D02*
G01X28527Y3918D01*
G01X28527Y3918D02*
G01X28504Y3872D01*
G01X28504Y3872D02*
G01X28481Y3850D01*
G01X28481Y3850D02*
G01X28413Y3827D01*
G01X28209Y3827D02*
G01X28413Y3827D01*
G01X29004Y4077D02*
G01X28754Y4077D01*
G01X29004Y4077D02*
G01X28868Y3895D01*
G01X28936Y3895D02*
G01X28868Y3895D01*
G01X28936Y3895D02*
G01X28981Y3872D01*
G01X28981Y3872D02*
G01X29004Y3850D01*
G01X29004Y3850D02*
G01X29027Y3781D01*
G01X29027Y3781D02*
G01X29027Y3736D01*
G01X29027Y3736D02*
G01X29004Y3668D01*
G01X29004Y3668D02*
G01X28959Y3622D01*
G01X28959Y3622D02*
G01X28890Y3600D01*
G01X28822Y3600D02*
G01X28890Y3600D01*
G01X28754Y3622D02*
G01X28822Y3600D01*
G01X28731Y3645D02*
G01X28754Y3622D01*
G01X28709Y3690D02*
G01X28731Y3645D01*
G04 Draw part JP4*
G04 draw part outline for part JP4*
G04 draw reference designator for part JP4*
G01X1027Y10477D02*
G01X1027Y10113D01*
G01X1027Y10113D02*
G01X1004Y10045D01*
G01X1004Y10045D02*
G01X981Y10022D01*
G01X981Y10022D02*
G01X936Y10000D01*
G01X890Y10000D02*
G01X936Y10000D01*
G01X845Y10022D02*
G01X890Y10000D01*
G01X822Y10045D02*
G01X845Y10022D01*
G01X800Y10113D02*
G01X822Y10045D01*
G01X800Y10159D02*
G01X800Y10113D01*
G01X1209Y10477D02*
G01X1209Y10000D01*
G01X1413Y10477D02*
G01X1209Y10477D01*
G01X1413Y10477D02*
G01X1481Y10454D01*
G01X1481Y10454D02*
G01X1504Y10431D01*
G01X1504Y10431D02*
G01X1527Y10386D01*
G01X1527Y10386D02*
G01X1527Y10318D01*
G01X1527Y10318D02*
G01X1504Y10272D01*
G01X1504Y10272D02*
G01X1481Y10250D01*
G01X1481Y10250D02*
G01X1413Y10227D01*
G01X1209Y10227D02*
G01X1413Y10227D01*
G01X1936Y10477D02*
G01X1709Y10159D01*
G01X2050Y10159D02*
G01X1709Y10159D01*
G01X1936Y10477D02*
G01X1936Y10000D01*
G04 Draw part JP5*
G04 draw part outline for part JP5*
G04 draw reference designator for part JP5*
G01X12027Y18877D02*
G01X12027Y18513D01*
G01X12027Y18513D02*
G01X12004Y18445D01*
G01X12004Y18445D02*
G01X11981Y18422D01*
G01X11981Y18422D02*
G01X11936Y18400D01*
G01X11890Y18400D02*
G01X11936Y18400D01*
G01X11845Y18422D02*
G01X11890Y18400D01*
G01X11822Y18445D02*
G01X11845Y18422D01*
G01X11800Y18513D02*
G01X11822Y18445D01*
G01X11800Y18559D02*
G01X11800Y18513D01*
G01X12209Y18877D02*
G01X12209Y18400D01*
G01X12413Y18877D02*
G01X12209Y18877D01*
G01X12413Y18877D02*
G01X12481Y18854D01*
G01X12481Y18854D02*
G01X12504Y18831D01*
G01X12504Y18831D02*
G01X12527Y18786D01*
G01X12527Y18786D02*
G01X12527Y18718D01*
G01X12527Y18718D02*
G01X12504Y18672D01*
G01X12504Y18672D02*
G01X12481Y18650D01*
G01X12481Y18650D02*
G01X12413Y18627D01*
G01X12209Y18627D02*
G01X12413Y18627D01*
G01X12754Y18877D02*
G01X12981Y18877D01*
G01X12754Y18877D02*
G01X12731Y18672D01*
G01X12754Y18695D02*
G01X12731Y18672D01*
G01X12822Y18718D02*
G01X12754Y18695D01*
G01X12890Y18718D02*
G01X12822Y18718D01*
G01X12890Y18718D02*
G01X12959Y18695D01*
G01X12959Y18695D02*
G01X13004Y18650D01*
G01X13004Y18650D02*
G01X13027Y18581D01*
G01X13027Y18581D02*
G01X13027Y18536D01*
G01X13027Y18536D02*
G01X13004Y18468D01*
G01X13004Y18468D02*
G01X12959Y18422D01*
G01X12959Y18422D02*
G01X12890Y18400D01*
G01X12822Y18400D02*
G01X12890Y18400D01*
G01X12754Y18422D02*
G01X12822Y18400D01*
G01X12731Y18445D02*
G01X12754Y18422D01*
G01X12709Y18490D02*
G01X12731Y18445D01*
G04 Draw part JP6*
G04 draw part outline for part JP6*
G04 draw reference designator for part JP6*
G01X1027Y13077D02*
G01X1027Y12713D01*
G01X1027Y12713D02*
G01X1004Y12645D01*
G01X1004Y12645D02*
G01X981Y12622D01*
G01X981Y12622D02*
G01X936Y12600D01*
G01X890Y12600D02*
G01X936Y12600D01*
G01X845Y12622D02*
G01X890Y12600D01*
G01X822Y12645D02*
G01X845Y12622D01*
G01X800Y12713D02*
G01X822Y12645D01*
G01X800Y12759D02*
G01X800Y12713D01*
G01X1209Y13077D02*
G01X1209Y12600D01*
G01X1413Y13077D02*
G01X1209Y13077D01*
G01X1413Y13077D02*
G01X1481Y13054D01*
G01X1481Y13054D02*
G01X1504Y13031D01*
G01X1504Y13031D02*
G01X1527Y12986D01*
G01X1527Y12986D02*
G01X1527Y12918D01*
G01X1527Y12918D02*
G01X1504Y12872D01*
G01X1504Y12872D02*
G01X1481Y12850D01*
G01X1481Y12850D02*
G01X1413Y12827D01*
G01X1209Y12827D02*
G01X1413Y12827D01*
G01X1959Y13054D02*
G01X1981Y13009D01*
G01X1890Y13077D02*
G01X1959Y13054D01*
G01X1845Y13077D02*
G01X1890Y13077D01*
G01X1845Y13077D02*
G01X1777Y13054D01*
G01X1777Y13054D02*
G01X1731Y12986D01*
G01X1731Y12986D02*
G01X1709Y12872D01*
G01X1709Y12872D02*
G01X1709Y12759D01*
G01X1709Y12759D02*
G01X1731Y12668D01*
G01X1731Y12668D02*
G01X1777Y12622D01*
G01X1777Y12622D02*
G01X1845Y12600D01*
G01X1868Y12600D02*
G01X1845Y12600D01*
G01X1936Y12622D02*
G01X1868Y12600D01*
G01X1981Y12668D02*
G01X1936Y12622D01*
G01X2004Y12736D02*
G01X1981Y12668D01*
G01X2004Y12759D02*
G01X2004Y12736D01*
G01X1981Y12827D02*
G01X2004Y12759D01*
G01X1936Y12872D02*
G01X1981Y12827D01*
G01X1868Y12895D02*
G01X1936Y12872D01*
G01X1845Y12895D02*
G01X1868Y12895D01*
G01X1845Y12895D02*
G01X1777Y12872D01*
G01X1777Y12872D02*
G01X1731Y12827D01*
G01X1731Y12827D02*
G01X1709Y12759D01*
G04 Draw part R1*
G04 draw part outline for part R1*
G01X25511Y12433D02*
G01X25511Y10464D01*
G01X25511Y10464D02*
G01X24488Y10464D01*
G01X24488Y10464D02*
G01X24488Y12433D01*
G01X24488Y12433D02*
G01X25511Y12433D01*
G04 draw reference designator for part R1*
G01X23400Y11677D02*
G01X23400Y11200D01*
G01X23604Y11677D02*
G01X23400Y11677D01*
G01X23604Y11677D02*
G01X23672Y11654D01*
G01X23672Y11654D02*
G01X23695Y11631D01*
G01X23695Y11631D02*
G01X23718Y11586D01*
G01X23718Y11586D02*
G01X23718Y11540D01*
G01X23718Y11540D02*
G01X23695Y11495D01*
G01X23695Y11495D02*
G01X23672Y11472D01*
G01X23672Y11472D02*
G01X23604Y11450D01*
G01X23400Y11450D02*
G01X23604Y11450D01*
G01X23559Y11450D02*
G01X23718Y11200D01*
G01X23945Y11609D02*
G01X23900Y11586D01*
G01X24013Y11677D02*
G01X23945Y11609D01*
G01X24013Y11677D02*
G01X24013Y11200D01*
G04 Draw part R2*
G04 draw part outline for part R2*
G01X25511Y6433D02*
G01X25511Y4464D01*
G01X25511Y4464D02*
G01X24488Y4464D01*
G01X24488Y4464D02*
G01X24488Y6433D01*
G01X24488Y6433D02*
G01X25511Y6433D01*
G04 draw reference designator for part R2*
G01X23400Y5677D02*
G01X23400Y5200D01*
G01X23604Y5677D02*
G01X23400Y5677D01*
G01X23604Y5677D02*
G01X23672Y5654D01*
G01X23672Y5654D02*
G01X23695Y5631D01*
G01X23695Y5631D02*
G01X23718Y5586D01*
G01X23718Y5586D02*
G01X23718Y5540D01*
G01X23718Y5540D02*
G01X23695Y5495D01*
G01X23695Y5495D02*
G01X23672Y5472D01*
G01X23672Y5472D02*
G01X23604Y5450D01*
G01X23400Y5450D02*
G01X23604Y5450D01*
G01X23559Y5450D02*
G01X23718Y5200D01*
G01X23922Y5586D02*
G01X23922Y5563D01*
G01X23945Y5631D02*
G01X23922Y5586D01*
G01X23968Y5654D02*
G01X23945Y5631D01*
G01X24013Y5677D02*
G01X23968Y5654D01*
G01X24104Y5677D02*
G01X24013Y5677D01*
G01X24104Y5677D02*
G01X24150Y5654D01*
G01X24150Y5654D02*
G01X24172Y5631D01*
G01X24172Y5631D02*
G01X24195Y5586D01*
G01X24195Y5586D02*
G01X24195Y5540D01*
G01X24195Y5540D02*
G01X24172Y5495D01*
G01X24172Y5495D02*
G01X24127Y5427D01*
G01X24127Y5427D02*
G01X23900Y5200D01*
G01X24218Y5200D02*
G01X23900Y5200D01*
G04 Draw part R3*
G04 draw part outline for part R3*
G01X5566Y15511D02*
G01X7535Y15511D01*
G01X7535Y15511D02*
G01X7535Y14488D01*
G01X7535Y14488D02*
G01X5566Y14488D01*
G01X5566Y14488D02*
G01X5566Y15511D01*
G04 draw reference designator for part R3*
G01X6200Y16477D02*
G01X6200Y16000D01*
G01X6404Y16477D02*
G01X6200Y16477D01*
G01X6404Y16477D02*
G01X6472Y16454D01*
G01X6472Y16454D02*
G01X6495Y16431D01*
G01X6495Y16431D02*
G01X6518Y16386D01*
G01X6518Y16386D02*
G01X6518Y16340D01*
G01X6518Y16340D02*
G01X6495Y16295D01*
G01X6495Y16295D02*
G01X6472Y16272D01*
G01X6472Y16272D02*
G01X6404Y16250D01*
G01X6200Y16250D02*
G01X6404Y16250D01*
G01X6359Y16250D02*
G01X6518Y16000D01*
G01X6995Y16477D02*
G01X6745Y16477D01*
G01X6995Y16477D02*
G01X6859Y16295D01*
G01X6927Y16295D02*
G01X6859Y16295D01*
G01X6927Y16295D02*
G01X6972Y16272D01*
G01X6972Y16272D02*
G01X6995Y16250D01*
G01X6995Y16250D02*
G01X7018Y16181D01*
G01X7018Y16181D02*
G01X7018Y16136D01*
G01X7018Y16136D02*
G01X6995Y16068D01*
G01X6995Y16068D02*
G01X6950Y16022D01*
G01X6950Y16022D02*
G01X6881Y16000D01*
G01X6813Y16000D02*
G01X6881Y16000D01*
G01X6745Y16022D02*
G01X6813Y16000D01*
G01X6722Y16045D02*
G01X6745Y16022D01*
G01X6700Y16090D02*
G01X6722Y16045D01*
G04 Draw part U1*
G04 draw part outline for part U1*
G01X13500Y16500D02*
G01X13500Y2500D01*
G01X13500Y2500D02*
G01X15500Y2500D01*
G01X15500Y2500D02*
G01X15500Y16500D01*
G01X15500Y16500D02*
G01X13500Y16500D01*
G01X14000Y16500D02*
G01X14000Y16000D01*
G01X14000Y16000D02*
G01X15000Y16000D01*
G01X15000Y16000D02*
G01X15000Y16500D01*
G01X15000Y16500D02*
G01X14000Y16500D01*
G04 draw reference designator for part U1*
G01X14200Y2077D02*
G01X14200Y1736D01*
G01X14200Y1736D02*
G01X14222Y1668D01*
G01X14222Y1668D02*
G01X14268Y1622D01*
G01X14268Y1622D02*
G01X14336Y1600D01*
G01X14381Y1600D02*
G01X14336Y1600D01*
G01X14450Y1622D02*
G01X14381Y1600D01*
G01X14495Y1668D02*
G01X14450Y1622D01*
G01X14518Y1736D02*
G01X14495Y1668D01*
G01X14518Y2077D02*
G01X14518Y1736D01*
G01X14745Y2009D02*
G01X14700Y1986D01*
G01X14813Y2077D02*
G01X14745Y2009D01*
G01X14813Y2077D02*
G01X14813Y1600D01*
G04 Draw part U3*
G04 draw part outline for part U3*
G01X10700Y14300D02*
G01X10700Y17700D01*
G01X10700Y17700D02*
G01X9100Y17700D01*
G01X9100Y17700D02*
G01X9100Y14300D01*
G01X9100Y14300D02*
G01X10700Y14300D01*
G01X9300Y14300D02*
G01X9300Y17700D01*
G04 draw reference designator for part U3*
G01X9400Y18677D02*
G01X9400Y18336D01*
G01X9400Y18336D02*
G01X9422Y18268D01*
G01X9422Y18268D02*
G01X9468Y18222D01*
G01X9468Y18222D02*
G01X9536Y18200D01*
G01X9581Y18200D02*
G01X9536Y18200D01*
G01X9650Y18222D02*
G01X9581Y18200D01*
G01X9695Y18268D02*
G01X9650Y18222D01*
G01X9718Y18336D02*
G01X9695Y18268D01*
G01X9718Y18677D02*
G01X9718Y18336D01*
G01X10195Y18677D02*
G01X9945Y18677D01*
G01X10195Y18677D02*
G01X10059Y18495D01*
G01X10127Y18495D02*
G01X10059Y18495D01*
G01X10127Y18495D02*
G01X10172Y18472D01*
G01X10172Y18472D02*
G01X10195Y18450D01*
G01X10195Y18450D02*
G01X10218Y18381D01*
G01X10218Y18381D02*
G01X10218Y18336D01*
G01X10218Y18336D02*
G01X10195Y18268D01*
G01X10195Y18268D02*
G01X10150Y18222D01*
G01X10150Y18222D02*
G01X10081Y18200D01*
G01X10013Y18200D02*
G01X10081Y18200D01*
G01X9945Y18222D02*
G01X10013Y18200D01*
G01X9922Y18245D02*
G01X9945Y18222D01*
G01X9900Y18290D02*
G01X9922Y18245D01*
G04 Draw part Y1*
G04 draw part outline for part Y1*
G01X8500Y11500D02*
G01X8500Y7500D01*
G01X8500Y7500D02*
G01X10500Y7500D01*
G01X10500Y7500D02*
G01X10500Y11500D01*
G01X10500Y11500D02*
G01X8500Y11500D01*
G01X9000Y11500D02*
G01X9000Y11000D01*
G01X9000Y11000D02*
G01X10000Y11000D01*
G01X10000Y11000D02*
G01X10000Y11500D01*
G01X10000Y11500D02*
G01X9000Y11500D01*
G04 draw reference designator for part Y1*
G01X9200Y7077D02*
G01X9381Y6850D01*
G01X9381Y6850D02*
G01X9381Y6600D01*
G01X9563Y7077D02*
G01X9381Y6850D01*
G01X9790Y7009D02*
G01X9745Y6986D01*
G01X9859Y7077D02*
G01X9790Y7009D01*
G01X9859Y7077D02*
G01X9859Y6600D01*
G04 Draw part H1*
G04 draw part outline for part H1*
G04 draw reference designator for part H1*
G01X1200Y1677D02*
G01X1200Y1200D01*
G01X1518Y1677D02*
G01X1518Y1200D01*
G01X1518Y1450D02*
G01X1200Y1450D01*
G01X1745Y1609D02*
G01X1700Y1586D01*
G01X1813Y1677D02*
G01X1745Y1609D01*
G01X1813Y1677D02*
G01X1813Y1200D01*
G04 Draw part H2*
G04 draw part outline for part H2*
G04 draw reference designator for part H2*
G01X1200Y18677D02*
G01X1200Y18200D01*
G01X1518Y18677D02*
G01X1518Y18200D01*
G01X1518Y18450D02*
G01X1200Y18450D01*
G01X1722Y18586D02*
G01X1722Y18563D01*
G01X1745Y18631D02*
G01X1722Y18586D01*
G01X1768Y18654D02*
G01X1745Y18631D01*
G01X1813Y18677D02*
G01X1768Y18654D01*
G01X1904Y18677D02*
G01X1813Y18677D01*
G01X1904Y18677D02*
G01X1950Y18654D01*
G01X1950Y18654D02*
G01X1972Y18631D01*
G01X1972Y18631D02*
G01X1995Y18586D01*
G01X1995Y18586D02*
G01X1995Y18540D01*
G01X1995Y18540D02*
G01X1972Y18495D01*
G01X1972Y18495D02*
G01X1927Y18427D01*
G01X1927Y18427D02*
G01X1700Y18200D01*
G01X2018Y18200D02*
G01X1700Y18200D01*
G04 Draw part H3*
G04 draw part outline for part H3*
G04 draw reference designator for part H3*
G01X28000Y18677D02*
G01X28000Y18200D01*
G01X28318Y18677D02*
G01X28318Y18200D01*
G01X28318Y18450D02*
G01X28000Y18450D01*
G01X28795Y18677D02*
G01X28545Y18677D01*
G01X28795Y18677D02*
G01X28659Y18495D01*
G01X28727Y18495D02*
G01X28659Y18495D01*
G01X28727Y18495D02*
G01X28772Y18472D01*
G01X28772Y18472D02*
G01X28795Y18450D01*
G01X28795Y18450D02*
G01X28818Y18381D01*
G01X28818Y18381D02*
G01X28818Y18336D01*
G01X28818Y18336D02*
G01X28795Y18268D01*
G01X28795Y18268D02*
G01X28750Y18222D01*
G01X28750Y18222D02*
G01X28681Y18200D01*
G01X28613Y18200D02*
G01X28681Y18200D01*
G01X28545Y18222D02*
G01X28613Y18200D01*
G01X28522Y18245D02*
G01X28545Y18222D01*
G01X28500Y18290D02*
G01X28522Y18245D01*
G04 Draw part H4*
G04 draw part outline for part H4*
G04 draw reference designator for part H4*
G01X28000Y1677D02*
G01X28000Y1200D01*
G01X28318Y1677D02*
G01X28318Y1200D01*
G01X28318Y1450D02*
G01X28000Y1450D01*
G01X28727Y1677D02*
G01X28500Y1359D01*
G01X28840Y1359D02*
G01X28500Y1359D01*
G01X28727Y1677D02*
G01X28727Y1200D01*
G04 Draw part C5*
G04 draw part outline for part C5*
G01X8566Y13311D02*
G01X10535Y13311D01*
G01X10535Y13311D02*
G01X10535Y12288D01*
G01X10535Y12288D02*
G01X8566Y12288D01*
G01X8566Y12288D02*
G01X8566Y13311D01*
G04 draw reference designator for part C5*
G01X11118Y13509D02*
G01X11140Y13463D01*
G01X11072Y13554D02*
G01X11118Y13509D01*
G01X11027Y13577D02*
G01X11072Y13554D01*
G01X10936Y13577D02*
G01X11027Y13577D01*
G01X10936Y13577D02*
G01X10890Y13554D01*
G01X10890Y13554D02*
G01X10845Y13509D01*
G01X10845Y13509D02*
G01X10822Y13463D01*
G01X10822Y13463D02*
G01X10800Y13395D01*
G01X10800Y13395D02*
G01X10800Y13281D01*
G01X10800Y13281D02*
G01X10822Y13213D01*
G01X10822Y13213D02*
G01X10845Y13168D01*
G01X10845Y13168D02*
G01X10890Y13122D01*
G01X10890Y13122D02*
G01X10936Y13100D01*
G01X11027Y13100D02*
G01X10936Y13100D01*
G01X11072Y13122D02*
G01X11027Y13100D01*
G01X11118Y13168D02*
G01X11072Y13122D01*
G01X11140Y13213D02*
G01X11118Y13168D01*
G01X11368Y13577D02*
G01X11595Y13577D01*
G01X11368Y13577D02*
G01X11345Y13372D01*
G01X11368Y13395D02*
G01X11345Y13372D01*
G01X11436Y13418D02*
G01X11368Y13395D01*
G01X11504Y13418D02*
G01X11436Y13418D01*
G01X11504Y13418D02*
G01X11572Y13395D01*
G01X11572Y13395D02*
G01X11618Y13350D01*
G01X11618Y13350D02*
G01X11640Y13281D01*
G01X11640Y13281D02*
G01X11640Y13236D01*
G01X11640Y13236D02*
G01X11618Y13168D01*
G01X11618Y13168D02*
G01X11572Y13122D01*
G01X11572Y13122D02*
G01X11504Y13100D01*
G01X11436Y13100D02*
G01X11504Y13100D01*
G01X11368Y13122D02*
G01X11436Y13100D01*
G01X11345Y13145D02*
G01X11368Y13122D01*
G01X11322Y13190D02*
G01X11345Y13145D01*
G04 Draw part C6*
G04 draw part outline for part C6*
G01X18033Y8374D02*
G01X18033Y6877D01*
G01X18033Y6877D02*
G01X17166Y6877D01*
G01X17166Y6877D02*
G01X17166Y8374D01*
G01X17166Y8374D02*
G01X18033Y8374D01*
G04 draw reference designator for part C6*
G01X17518Y9109D02*
G01X17540Y9063D01*
G01X17472Y9154D02*
G01X17518Y9109D01*
G01X17427Y9177D02*
G01X17472Y9154D01*
G01X17336Y9177D02*
G01X17427Y9177D01*
G01X17336Y9177D02*
G01X17290Y9154D01*
G01X17290Y9154D02*
G01X17245Y9109D01*
G01X17245Y9109D02*
G01X17222Y9063D01*
G01X17222Y9063D02*
G01X17200Y8995D01*
G01X17200Y8995D02*
G01X17200Y8881D01*
G01X17200Y8881D02*
G01X17222Y8813D01*
G01X17222Y8813D02*
G01X17245Y8768D01*
G01X17245Y8768D02*
G01X17290Y8722D01*
G01X17290Y8722D02*
G01X17336Y8700D01*
G01X17427Y8700D02*
G01X17336Y8700D01*
G01X17472Y8722D02*
G01X17427Y8700D01*
G01X17518Y8768D02*
G01X17472Y8722D01*
G01X17540Y8813D02*
G01X17518Y8768D01*
G01X17972Y9154D02*
G01X17995Y9109D01*
G01X17904Y9177D02*
G01X17972Y9154D01*
G01X17859Y9177D02*
G01X17904Y9177D01*
G01X17859Y9177D02*
G01X17790Y9154D01*
G01X17790Y9154D02*
G01X17745Y9086D01*
G01X17745Y9086D02*
G01X17722Y8972D01*
G01X17722Y8972D02*
G01X17722Y8859D01*
G01X17722Y8859D02*
G01X17745Y8768D01*
G01X17745Y8768D02*
G01X17790Y8722D01*
G01X17790Y8722D02*
G01X17859Y8700D01*
G01X17881Y8700D02*
G01X17859Y8700D01*
G01X17950Y8722D02*
G01X17881Y8700D01*
G01X17995Y8768D02*
G01X17950Y8722D01*
G01X18018Y8836D02*
G01X17995Y8768D01*
G01X18018Y8859D02*
G01X18018Y8836D01*
G01X17995Y8927D02*
G01X18018Y8859D01*
G01X17950Y8972D02*
G01X17995Y8927D01*
G01X17881Y8995D02*
G01X17950Y8972D01*
G01X17859Y8995D02*
G01X17881Y8995D01*
G01X17859Y8995D02*
G01X17790Y8972D01*
G01X17790Y8972D02*
G01X17745Y8927D01*
G01X17745Y8927D02*
G01X17722Y8859D01*
G04 Draw part C7*
G04 draw part outline for part C7*
G01X19825Y16233D02*
G01X21322Y16233D01*
G01X21322Y16233D02*
G01X21322Y15366D01*
G01X21322Y15366D02*
G01X19825Y15366D01*
G01X19825Y15366D02*
G01X19825Y16233D01*
G04 draw reference designator for part C7*
G01X20892Y17035D02*
G01X20914Y16990D01*
G01X20846Y17081D02*
G01X20892Y17035D01*
G01X20801Y17104D02*
G01X20846Y17081D01*
G01X20710Y17104D02*
G01X20801Y17104D01*
G01X20710Y17104D02*
G01X20664Y17081D01*
G01X20664Y17081D02*
G01X20619Y17035D01*
G01X20619Y17035D02*
G01X20596Y16990D01*
G01X20596Y16990D02*
G01X20574Y16922D01*
G01X20574Y16922D02*
G01X20574Y16808D01*
G01X20574Y16808D02*
G01X20596Y16740D01*
G01X20596Y16740D02*
G01X20619Y16694D01*
G01X20619Y16694D02*
G01X20664Y16649D01*
G01X20664Y16649D02*
G01X20710Y16626D01*
G01X20801Y16626D02*
G01X20710Y16626D01*
G01X20846Y16649D02*
G01X20801Y16626D01*
G01X20892Y16694D02*
G01X20846Y16649D01*
G01X20914Y16740D02*
G01X20892Y16694D01*
G01X21414Y17104D02*
G01X21187Y16626D01*
G01X21414Y17104D02*
G01X21096Y17104D01*
G04 Draw part U2*
G04 draw part outline for part U2*
G01X19500Y14500D02*
G01X19500Y7500D01*
G01X19500Y7500D02*
G01X21500Y7500D01*
G01X21500Y7500D02*
G01X21500Y14500D01*
G01X21500Y14500D02*
G01X19500Y14500D01*
G01X20000Y14500D02*
G01X20000Y14000D01*
G01X20000Y14000D02*
G01X21000Y14000D01*
G01X21000Y14000D02*
G01X21000Y14500D01*
G01X21000Y14500D02*
G01X20000Y14500D01*
G04 draw reference designator for part U2*
G01X20000Y7077D02*
G01X20000Y6736D01*
G01X20000Y6736D02*
G01X20022Y6668D01*
G01X20022Y6668D02*
G01X20068Y6622D01*
G01X20068Y6622D02*
G01X20136Y6600D01*
G01X20181Y6600D02*
G01X20136Y6600D01*
G01X20250Y6622D02*
G01X20181Y6600D01*
G01X20295Y6668D02*
G01X20250Y6622D01*
G01X20318Y6736D02*
G01X20295Y6668D01*
G01X20318Y7077D02*
G01X20318Y6736D01*
G01X20522Y6986D02*
G01X20522Y6963D01*
G01X20545Y7031D02*
G01X20522Y6986D01*
G01X20568Y7054D02*
G01X20545Y7031D01*
G01X20613Y7077D02*
G01X20568Y7054D01*
G01X20704Y7077D02*
G01X20613Y7077D01*
G01X20704Y7077D02*
G01X20750Y7054D01*
G01X20750Y7054D02*
G01X20772Y7031D01*
G01X20772Y7031D02*
G01X20795Y6986D01*
G01X20795Y6986D02*
G01X20795Y6940D01*
G01X20795Y6940D02*
G01X20772Y6895D01*
G01X20772Y6895D02*
G01X20727Y6827D01*
G01X20727Y6827D02*
G01X20500Y6600D01*
G01X20818Y6600D02*
G01X20500Y6600D01*

G04 Draw traces*

G04 Draw Text*
G01X8200Y1154D02*
G01X8200Y200D01*
G01X8200Y1154D02*
G01X8563Y200D01*
G01X8927Y1154D02*
G01X8563Y200D01*
G01X8927Y1154D02*
G01X8927Y200D01*
G01X9518Y836D02*
G01X9427Y790D01*
G01X9427Y790D02*
G01X9336Y700D01*
G01X9336Y700D02*
G01X9290Y563D01*
G01X9290Y563D02*
G01X9290Y472D01*
G01X9290Y472D02*
G01X9336Y336D01*
G01X9336Y336D02*
G01X9427Y245D01*
G01X9427Y245D02*
G01X9518Y200D01*
G01X9518Y200D02*
G01X9654Y200D01*
G01X9654Y200D02*
G01X9745Y245D01*
G01X9745Y245D02*
G01X9836Y336D01*
G01X9836Y336D02*
G01X9881Y472D01*
G01X9881Y472D02*
G01X9881Y563D01*
G01X9881Y563D02*
G01X9836Y700D01*
G01X9836Y700D02*
G01X9745Y790D01*
G01X9745Y790D02*
G01X9654Y836D01*
G01X9654Y836D02*
G01X9518Y836D01*
G01X10381Y1154D02*
G01X10381Y381D01*
G01X10381Y381D02*
G01X10427Y245D01*
G01X10427Y245D02*
G01X10518Y200D01*
G01X10518Y200D02*
G01X10609Y200D01*
G01X10245Y836D02*
G01X10563Y836D01*
G01X11199Y836D02*
G01X11109Y790D01*
G01X11109Y790D02*
G01X11018Y700D01*
G01X11018Y700D02*
G01X10972Y563D01*
G01X10972Y563D02*
G01X10972Y472D01*
G01X10972Y472D02*
G01X11018Y336D01*
G01X11018Y336D02*
G01X11109Y245D01*
G01X11109Y245D02*
G01X11199Y200D01*
G01X11199Y200D02*
G01X11336Y200D01*
G01X11336Y200D02*
G01X11427Y245D01*
G01X11427Y245D02*
G01X11518Y336D01*
G01X11518Y336D02*
G01X11563Y472D01*
G01X11563Y472D02*
G01X11563Y563D01*
G01X11563Y563D02*
G01X11518Y700D01*
G01X11518Y700D02*
G01X11427Y790D01*
G01X11427Y790D02*
G01X11336Y836D01*
G01X11336Y836D02*
G01X11199Y836D01*
G01X11927Y836D02*
G01X11927Y200D01*
G01X11927Y563D02*
G01X11972Y700D01*
G01X11972Y700D02*
G01X12063Y790D01*
G01X12063Y790D02*
G01X12154Y836D01*
G01X12154Y836D02*
G01X12290Y836D01*
G01X14063Y927D02*
G01X14018Y1018D01*
G01X14018Y1018D02*
G01X13927Y1109D01*
G01X13927Y1109D02*
G01X13836Y1154D01*
G01X13836Y1154D02*
G01X13654Y1154D01*
G01X13654Y1154D02*
G01X13563Y1109D01*
G01X13563Y1109D02*
G01X13472Y1018D01*
G01X13472Y1018D02*
G01X13427Y927D01*
G01X13427Y927D02*
G01X13381Y790D01*
G01X13381Y790D02*
G01X13381Y563D01*
G01X13381Y563D02*
G01X13427Y427D01*
G01X13427Y427D02*
G01X13472Y336D01*
G01X13472Y336D02*
G01X13563Y245D01*
G01X13563Y245D02*
G01X13654Y200D01*
G01X13654Y200D02*
G01X13836Y200D01*
G01X13836Y200D02*
G01X13927Y245D01*
G01X13927Y245D02*
G01X14018Y336D01*
G01X14018Y336D02*
G01X14063Y427D01*
G01X14654Y836D02*
G01X14563Y790D01*
G01X14563Y790D02*
G01X14472Y700D01*
G01X14472Y700D02*
G01X14427Y563D01*
G01X14427Y563D02*
G01X14427Y472D01*
G01X14427Y472D02*
G01X14472Y336D01*
G01X14472Y336D02*
G01X14563Y245D01*
G01X14563Y245D02*
G01X14654Y200D01*
G01X14654Y200D02*
G01X14790Y200D01*
G01X14790Y200D02*
G01X14881Y245D01*
G01X14881Y245D02*
G01X14972Y336D01*
G01X14972Y336D02*
G01X15018Y472D01*
G01X15018Y472D02*
G01X15018Y563D01*
G01X15018Y563D02*
G01X14972Y700D01*
G01X14972Y700D02*
G01X14881Y790D01*
G01X14881Y790D02*
G01X14790Y836D01*
G01X14790Y836D02*
G01X14654Y836D01*
G01X15381Y836D02*
G01X15381Y200D01*
G01X15381Y654D02*
G01X15518Y790D01*
G01X15518Y790D02*
G01X15609Y836D01*
G01X15609Y836D02*
G01X15745Y836D01*
G01X15745Y836D02*
G01X15836Y790D01*
G01X15836Y790D02*
G01X15881Y654D01*
G01X15881Y654D02*
G01X15881Y200D01*
G01X16381Y1154D02*
G01X16381Y381D01*
G01X16381Y381D02*
G01X16427Y245D01*
G01X16427Y245D02*
G01X16518Y200D01*
G01X16518Y200D02*
G01X16609Y200D01*
G01X16245Y836D02*
G01X16563Y836D01*
G01X16972Y836D02*
G01X16972Y200D01*
G01X16972Y563D02*
G01X17018Y700D01*
G01X17018Y700D02*
G01X17109Y790D01*
G01X17109Y790D02*
G01X17199Y836D01*
G01X17199Y836D02*
G01X17336Y836D01*
G01X17927Y836D02*
G01X17836Y790D01*
G01X17836Y790D02*
G01X17745Y700D01*
G01X17745Y700D02*
G01X17699Y563D01*
G01X17699Y563D02*
G01X17699Y472D01*
G01X17699Y472D02*
G01X17745Y336D01*
G01X17745Y336D02*
G01X17836Y245D01*
G01X17836Y245D02*
G01X17927Y200D01*
G01X17927Y200D02*
G01X18063Y200D01*
G01X18063Y200D02*
G01X18154Y245D01*
G01X18154Y245D02*
G01X18245Y336D01*
G01X18245Y336D02*
G01X18290Y472D01*
G01X18290Y472D02*
G01X18290Y563D01*
G01X18290Y563D02*
G01X18245Y700D01*
G01X18245Y700D02*
G01X18154Y790D01*
G01X18154Y790D02*
G01X18063Y836D01*
G01X18063Y836D02*
G01X17927Y836D01*
G01X18654Y1154D02*
G01X18654Y200D01*
G01X19018Y1154D02*
G01X19018Y200D01*
G01X19381Y563D02*
G01X19927Y563D01*
G01X19927Y563D02*
G01X19927Y654D01*
G01X19927Y654D02*
G01X19881Y745D01*
G01X19881Y745D02*
G01X19836Y790D01*
G01X19836Y790D02*
G01X19745Y836D01*
G01X19745Y836D02*
G01X19609Y836D01*
G01X19609Y836D02*
G01X19518Y790D01*
G01X19518Y790D02*
G01X19427Y700D01*
G01X19427Y700D02*
G01X19381Y563D01*
G01X19381Y563D02*
G01X19381Y472D01*
G01X19381Y472D02*
G01X19427Y336D01*
G01X19427Y336D02*
G01X19518Y245D01*
G01X19518Y245D02*
G01X19609Y200D01*
G01X19609Y200D02*
G01X19745Y200D01*
G01X19745Y200D02*
G01X19836Y245D01*
G01X19836Y245D02*
G01X19927Y336D01*
G01X20290Y836D02*
G01X20290Y200D01*
G01X20290Y563D02*
G01X20336Y700D01*
G01X20336Y700D02*
G01X20427Y790D01*
G01X20427Y790D02*
G01X20518Y836D01*
G01X20518Y836D02*
G01X20654Y836D01*
M00*
M02*
