G04 FreePCB version 1.359*
G04 C:\Users\Adam\Desktop\Magisterka\FreePCB project01\top_copper.grb*
G04 top copper layer *
G04 Scale: 100 percent, Rotated: No, Reflected: No *
%FSLAX24Y24*%
%MOIN*%
%LN top copper *%
G04 Rounded Rectangle Macro, params: W/2, H/2, R *
%AMRNDREC*
21,1,$1+$1,$2+$2-$3-$3,0,0,0*
21,1,$1+$1-$3-$3,$2+$2,0,0,0*
1,1,$3+$3,$1-$3,$2-$3*
1,1,$3+$3,$3-$1,$2-$3*
1,1,$3+$3,$1-$3,$3-$2*
1,1,$3+$3,$3-$1,$3-$2*%
G04 Rectangular Thermal Macro, params: W/2, H/2, T/2 *
%AMRECTHERM*
$4=$3/2*
21,1,$1-$3,$2-$3,0-$1/2-$4,0-$2/2-$4,0*
21,1,$1-$3,$2-$3,0-$1/2-$4,$2/2+$4,0*
21,1,$1-$3,$2-$3,$1/2+$4,0-$2/2-$4,0*
21,1,$1-$3,$2-$3,$1/2+$4,$2/2+$4,0*%
%AMMOIRE10*6,0,0,0.350000,0.005,0.050,3,0.005,0.400000,0.0*%
%ADD10MOIRE10*%
%ADD11C,0.010000*%
%ADD12C,0.005000*%
%ADD13R,0.119000X0.078000*%
%ADD14R,0.078740X0.062992*%
%ADD15R,0.110000X0.054000*%
%ADD16R,0.054000X0.110000*%
%ADD17R,0.050000X0.050000*%
%ADD18C,0.050000*%
%ADD19R,0.062992X0.078740*%
%ADD20R,0.055000X0.055000*%
%ADD21C,0.055000*%
%ADD22C,0.075000*%
%ADD23R,0.250000X0.250000*%
%ADD24R,0.062992X0.051181*%
%ADD25R,0.051181X0.062992*%
%ADD26C,0.028000*%
%ADD27C,0.015000*%
%ADD28C,0.020000*%
G90*
G70D02*

G04 ----------------------- Draw moires (positive)*
%LPD*%
G54D10*
G01X-5000Y0D03*
G01X35000Y0D03*
G01X-5000Y20000D03*

G04 Draw Layer Name*
G54D11*
G01X318Y-1045D02*
G01X318Y-2000D01*
G01X0Y-1045D02*
G01X636Y-1045D01*
G01X1227Y-1363D02*
G01X1136Y-1409D01*
G01X1136Y-1409D02*
G01X1045Y-1500D01*
G01X1045Y-1500D02*
G01X1000Y-1636D01*
G01X1000Y-1636D02*
G01X1000Y-1727D01*
G01X1000Y-1727D02*
G01X1045Y-1863D01*
G01X1045Y-1863D02*
G01X1136Y-1954D01*
G01X1136Y-1954D02*
G01X1227Y-2000D01*
G01X1227Y-2000D02*
G01X1363Y-2000D01*
G01X1363Y-2000D02*
G01X1454Y-1954D01*
G01X1454Y-1954D02*
G01X1545Y-1863D01*
G01X1545Y-1863D02*
G01X1590Y-1727D01*
G01X1590Y-1727D02*
G01X1590Y-1636D01*
G01X1590Y-1636D02*
G01X1545Y-1500D01*
G01X1545Y-1500D02*
G01X1454Y-1409D01*
G01X1454Y-1409D02*
G01X1363Y-1363D01*
G01X1363Y-1363D02*
G01X1227Y-1363D01*
G01X1954Y-1363D02*
G01X1954Y-2318D01*
G01X1954Y-1500D02*
G01X2045Y-1409D01*
G01X2045Y-1409D02*
G01X2136Y-1363D01*
G01X2136Y-1363D02*
G01X2272Y-1363D01*
G01X2272Y-1363D02*
G01X2363Y-1409D01*
G01X2363Y-1409D02*
G01X2454Y-1500D01*
G01X2454Y-1500D02*
G01X2499Y-1636D01*
G01X2499Y-1636D02*
G01X2499Y-1727D01*
G01X2499Y-1727D02*
G01X2454Y-1863D01*
G01X2454Y-1863D02*
G01X2363Y-1954D01*
G01X2363Y-1954D02*
G01X2272Y-2000D01*
G01X2272Y-2000D02*
G01X2136Y-2000D01*
G01X2136Y-2000D02*
G01X2045Y-1954D01*
G01X2045Y-1954D02*
G01X1954Y-1863D01*
G01X4272Y-1272D02*
G01X4227Y-1181D01*
G01X4227Y-1181D02*
G01X4136Y-1090D01*
G01X4136Y-1090D02*
G01X4045Y-1045D01*
G01X4045Y-1045D02*
G01X3863Y-1045D01*
G01X3863Y-1045D02*
G01X3772Y-1090D01*
G01X3772Y-1090D02*
G01X3681Y-1181D01*
G01X3681Y-1181D02*
G01X3636Y-1272D01*
G01X3636Y-1272D02*
G01X3590Y-1409D01*
G01X3590Y-1409D02*
G01X3590Y-1636D01*
G01X3590Y-1636D02*
G01X3636Y-1772D01*
G01X3636Y-1772D02*
G01X3681Y-1863D01*
G01X3681Y-1863D02*
G01X3772Y-1954D01*
G01X3772Y-1954D02*
G01X3863Y-2000D01*
G01X3863Y-2000D02*
G01X4045Y-2000D01*
G01X4045Y-2000D02*
G01X4136Y-1954D01*
G01X4136Y-1954D02*
G01X4227Y-1863D01*
G01X4227Y-1863D02*
G01X4272Y-1772D01*
G01X4863Y-1363D02*
G01X4772Y-1409D01*
G01X4772Y-1409D02*
G01X4681Y-1500D01*
G01X4681Y-1500D02*
G01X4636Y-1636D01*
G01X4636Y-1636D02*
G01X4636Y-1727D01*
G01X4636Y-1727D02*
G01X4681Y-1863D01*
G01X4681Y-1863D02*
G01X4772Y-1954D01*
G01X4772Y-1954D02*
G01X4863Y-2000D01*
G01X4863Y-2000D02*
G01X4999Y-2000D01*
G01X4999Y-2000D02*
G01X5090Y-1954D01*
G01X5090Y-1954D02*
G01X5181Y-1863D01*
G01X5181Y-1863D02*
G01X5227Y-1727D01*
G01X5227Y-1727D02*
G01X5227Y-1636D01*
G01X5227Y-1636D02*
G01X5181Y-1500D01*
G01X5181Y-1500D02*
G01X5090Y-1409D01*
G01X5090Y-1409D02*
G01X4999Y-1363D01*
G01X4999Y-1363D02*
G01X4863Y-1363D01*
G01X5590Y-1363D02*
G01X5590Y-2318D01*
G01X5590Y-1500D02*
G01X5681Y-1409D01*
G01X5681Y-1409D02*
G01X5772Y-1363D01*
G01X5772Y-1363D02*
G01X5909Y-1363D01*
G01X5909Y-1363D02*
G01X5999Y-1409D01*
G01X5999Y-1409D02*
G01X6090Y-1500D01*
G01X6090Y-1500D02*
G01X6136Y-1636D01*
G01X6136Y-1636D02*
G01X6136Y-1727D01*
G01X6136Y-1727D02*
G01X6090Y-1863D01*
G01X6090Y-1863D02*
G01X5999Y-1954D01*
G01X5999Y-1954D02*
G01X5909Y-2000D01*
G01X5909Y-2000D02*
G01X5772Y-2000D01*
G01X5772Y-2000D02*
G01X5681Y-1954D01*
G01X5681Y-1954D02*
G01X5590Y-1863D01*
G01X6500Y-1363D02*
G01X6500Y-2318D01*
G01X6500Y-1500D02*
G01X6590Y-1409D01*
G01X6590Y-1409D02*
G01X6681Y-1363D01*
G01X6681Y-1363D02*
G01X6818Y-1363D01*
G01X6818Y-1363D02*
G01X6909Y-1409D01*
G01X6909Y-1409D02*
G01X7000Y-1500D01*
G01X7000Y-1500D02*
G01X7045Y-1636D01*
G01X7045Y-1636D02*
G01X7045Y-1727D01*
G01X7045Y-1727D02*
G01X7000Y-1863D01*
G01X7000Y-1863D02*
G01X6909Y-1954D01*
G01X6909Y-1954D02*
G01X6818Y-2000D01*
G01X6818Y-2000D02*
G01X6681Y-2000D01*
G01X6681Y-2000D02*
G01X6590Y-1954D01*
G01X6590Y-1954D02*
G01X6500Y-1863D01*
G01X7409Y-1636D02*
G01X7954Y-1636D01*
G01X7954Y-1636D02*
G01X7954Y-1545D01*
G01X7954Y-1545D02*
G01X7909Y-1454D01*
G01X7909Y-1454D02*
G01X7863Y-1409D01*
G01X7863Y-1409D02*
G01X7772Y-1363D01*
G01X7772Y-1363D02*
G01X7636Y-1363D01*
G01X7636Y-1363D02*
G01X7545Y-1409D01*
G01X7545Y-1409D02*
G01X7454Y-1500D01*
G01X7454Y-1500D02*
G01X7409Y-1636D01*
G01X7409Y-1636D02*
G01X7409Y-1727D01*
G01X7409Y-1727D02*
G01X7454Y-1863D01*
G01X7454Y-1863D02*
G01X7545Y-1954D01*
G01X7545Y-1954D02*
G01X7636Y-2000D01*
G01X7636Y-2000D02*
G01X7772Y-2000D01*
G01X7772Y-2000D02*
G01X7863Y-1954D01*
G01X7863Y-1954D02*
G01X7954Y-1863D01*
G01X8318Y-1363D02*
G01X8318Y-2000D01*
G01X8318Y-1636D02*
G01X8363Y-1500D01*
G01X8363Y-1500D02*
G01X8454Y-1409D01*
G01X8454Y-1409D02*
G01X8545Y-1363D01*
G01X8545Y-1363D02*
G01X8681Y-1363D01*
G01X9772Y-1045D02*
G01X9772Y-2000D01*
G01X9772Y-2000D02*
G01X10318Y-2000D01*
G01X11227Y-1363D02*
G01X11227Y-2000D01*
G01X11227Y-1500D02*
G01X11136Y-1409D01*
G01X11136Y-1409D02*
G01X11045Y-1363D01*
G01X11045Y-1363D02*
G01X10909Y-1363D01*
G01X10909Y-1363D02*
G01X10818Y-1409D01*
G01X10818Y-1409D02*
G01X10727Y-1500D01*
G01X10727Y-1500D02*
G01X10681Y-1636D01*
G01X10681Y-1636D02*
G01X10681Y-1727D01*
G01X10681Y-1727D02*
G01X10727Y-1863D01*
G01X10727Y-1863D02*
G01X10818Y-1954D01*
G01X10818Y-1954D02*
G01X10909Y-2000D01*
G01X10909Y-2000D02*
G01X11045Y-2000D01*
G01X11045Y-2000D02*
G01X11136Y-1954D01*
G01X11136Y-1954D02*
G01X11227Y-1863D01*
G01X11636Y-1363D02*
G01X11909Y-2000D01*
G01X12181Y-1363D02*
G01X11909Y-2000D01*
G01X11909Y-2000D02*
G01X11818Y-2181D01*
G01X11818Y-2181D02*
G01X11727Y-2272D01*
G01X11727Y-2272D02*
G01X11636Y-2318D01*
G01X11636Y-2318D02*
G01X11590Y-2318D01*
G01X12545Y-1636D02*
G01X13090Y-1636D01*
G01X13090Y-1636D02*
G01X13090Y-1545D01*
G01X13090Y-1545D02*
G01X13045Y-1454D01*
G01X13045Y-1454D02*
G01X12999Y-1409D01*
G01X12999Y-1409D02*
G01X12909Y-1363D01*
G01X12909Y-1363D02*
G01X12772Y-1363D01*
G01X12772Y-1363D02*
G01X12681Y-1409D01*
G01X12681Y-1409D02*
G01X12590Y-1500D01*
G01X12590Y-1500D02*
G01X12545Y-1636D01*
G01X12545Y-1636D02*
G01X12545Y-1727D01*
G01X12545Y-1727D02*
G01X12590Y-1863D01*
G01X12590Y-1863D02*
G01X12681Y-1954D01*
G01X12681Y-1954D02*
G01X12772Y-2000D01*
G01X12772Y-2000D02*
G01X12909Y-2000D01*
G01X12909Y-2000D02*
G01X12999Y-1954D01*
G01X12999Y-1954D02*
G01X13090Y-1863D01*
G01X13454Y-1363D02*
G01X13454Y-2000D01*
G01X13454Y-1636D02*
G01X13499Y-1500D01*
G01X13499Y-1500D02*
G01X13590Y-1409D01*
G01X13590Y-1409D02*
G01X13681Y-1363D01*
G01X13681Y-1363D02*
G01X13818Y-1363D01*

G04 Step and Repeat for panelization *

G04 ----------------------- Draw board outline (positive)*
%LPD*%
G54D12*
G01X0Y0D02*
G01X0Y20000D01*
G04 end of side 1*
G01X30000Y20000D01*
G04 end of side 2*
G01X30000Y0D01*
G04 end of side 3*
G01X0Y0D01*

G04 -------------- Draw Parts, Pads, Traces, Vias and Text (positive)*
%LPD*%
G04 Draw part C1*
G54D13*
G01X5400Y9000D03*
G01X5400Y6240D03*
G04 Draw part C2*
G54D14*
G01X6000Y13000D03*
G01X6000Y11897D03*
G04 Draw part C3*
G54D15*
G01X25000Y15000D03*
G01X25000Y13430D03*
G04 Draw part C4*
G01X25000Y9000D03*
G01X25000Y7430D03*
G04 Draw part D1*
G54D16*
G01X3000Y15000D03*
G01X4570Y15000D03*
G04 Draw part JP1*
G54D17*
G01X19000Y18000D03*
G54D18*
G01X19000Y19000D03*
G01X20000Y18000D03*
G01X20000Y19000D03*
G01X21000Y18000D03*
G01X21000Y19000D03*
G01X22000Y18000D03*
G01X22000Y19000D03*
G01X23000Y18000D03*
G01X23000Y19000D03*
G04 Draw part JP2*
G54D17*
G01X28000Y15000D03*
G54D18*
G01X29000Y15000D03*
G01X28000Y14000D03*
G01X29000Y14000D03*
G01X28000Y13000D03*
G01X29000Y13000D03*
G01X28000Y12000D03*
G01X29000Y12000D03*
G01X28000Y11000D03*
G01X29000Y11000D03*
G04 Draw part JP3*
G54D17*
G01X28000Y9000D03*
G54D18*
G01X29000Y9000D03*
G01X28000Y8000D03*
G01X29000Y8000D03*
G01X28000Y7000D03*
G01X29000Y7000D03*
G01X28000Y6000D03*
G01X29000Y6000D03*
G01X28000Y5000D03*
G01X29000Y5000D03*
G04 Draw part JP4*
G54D17*
G01X1000Y9000D03*
G54D18*
G01X2000Y9000D03*
G01X1000Y8000D03*
G01X2000Y8000D03*
G01X1000Y7000D03*
G01X2000Y7000D03*
G01X1000Y6000D03*
G01X2000Y6000D03*
G01X1000Y5000D03*
G01X2000Y5000D03*
G04 Draw part JP5*
G54D17*
G01X14000Y18000D03*
G54D18*
G01X14000Y19000D03*
G01X15000Y18000D03*
G01X15000Y19000D03*
G01X16000Y18000D03*
G01X16000Y19000D03*
G04 Draw part JP6*
G54D17*
G01X1000Y15000D03*
G54D18*
G01X1000Y14000D03*
G04 Draw part R1*
G54D14*
G01X25000Y12000D03*
G01X25000Y10897D03*
G04 Draw part R2*
G01X25000Y6000D03*
G01X25000Y4897D03*
G04 Draw part R3*
G54D19*
G01X6000Y15000D03*
G01X7102Y15000D03*
G04 Draw part U1*
G54D20*
G01X13000Y16000D03*
G54D21*
G01X13000Y15000D03*
G01X13000Y14000D03*
G01X13000Y13000D03*
G01X13000Y12000D03*
G01X13000Y11000D03*
G01X13000Y10000D03*
G01X13000Y9000D03*
G01X13000Y8000D03*
G01X13000Y7000D03*
G01X13000Y6000D03*
G01X13000Y5000D03*
G01X13000Y4000D03*
G01X13000Y3000D03*
G01X16000Y3000D03*
G01X16000Y4000D03*
G01X16000Y5000D03*
G01X16000Y6000D03*
G01X16000Y7000D03*
G01X16000Y8000D03*
G01X16000Y9000D03*
G01X16000Y10000D03*
G01X16000Y11000D03*
G01X16000Y12000D03*
G01X16000Y13000D03*
G01X16000Y14000D03*
G01X16000Y15000D03*
G01X16000Y16000D03*
G04 Draw part U3*
G54D22*
G01X10000Y15000D03*
G01X10000Y16000D03*
G01X10000Y17000D03*
G04 Draw part Y1*
G54D20*
G01X8000Y11000D03*
G54D21*
G01X8000Y10000D03*
G01X8000Y9000D03*
G01X8000Y8000D03*
G01X11000Y8000D03*
G01X11000Y9000D03*
G01X11000Y10000D03*
G01X11000Y11000D03*
G04 Draw part H1*
G54D23*
G01X1500Y1500D03*
G04 Draw part H2*
G01X1500Y18500D03*
G04 Draw part H3*
G01X28500Y18500D03*
G04 Draw part H4*
G01X28500Y1500D03*
G04 Draw part C5*
G54D19*
G01X9000Y12800D03*
G01X10102Y12800D03*
G04 Draw part C6*
G54D24*
G01X17600Y8000D03*
G01X17600Y7251D03*
G04 Draw part C7*
G54D25*
G01X20200Y15800D03*
G01X20948Y15800D03*
G04 Draw part U2*
G54D20*
G01X19000Y14000D03*
G54D21*
G01X19000Y13000D03*
G01X19000Y12000D03*
G01X19000Y11000D03*
G01X19000Y10000D03*
G01X19000Y9000D03*
G01X19000Y8000D03*
G01X22000Y8000D03*
G01X22000Y9000D03*
G01X22000Y10000D03*
G01X22000Y11000D03*
G01X22000Y12000D03*
G01X22000Y13000D03*
G01X22000Y14000D03*

G04 Draw traces*
G54D11*
G01X28000Y12000D02*
G01X25000Y12000D01*
G01X25000Y12000D02*
G01X24000Y13000D01*
G01X24000Y13000D02*
G01X24000Y14000D01*
G01X24000Y14000D02*
G01X25000Y15000D01*
G54D26*
G01X23800Y15000D03*
G54D11*
G01X23800Y15000D02*
G01X25000Y15000D01*
G54D27*
G01X10102Y12800D02*
G01X11100Y12800D01*
G01X11100Y12800D02*
G01X11450Y12450D01*
G54D26*
G01X11450Y12450D03*
G54D27*
G01X17600Y8000D02*
G01X16750Y8000D01*
G54D26*
G01X16750Y8000D03*
G54D27*
G01X20948Y15800D02*
G01X21850Y15800D01*
G54D26*
G01X21850Y15800D03*
G54D27*
G01X5400Y9000D02*
G01X6550Y9000D01*
G54D26*
G01X6550Y9000D03*
G54D11*
G01X13000Y16000D02*
G01X13000Y17000D01*
G01X13000Y17000D02*
G01X14000Y18000D01*
G01X16000Y10000D02*
G01X17000Y10000D01*
G01X17000Y10000D02*
G01X19000Y12000D01*
G54D28*
G01X4570Y15000D02*
G01X6000Y15000D01*
G54D11*
G01X22000Y18000D02*
G01X22500Y18500D01*
G01X22500Y18500D02*
G01X23250Y18500D01*
G01X23250Y18500D02*
G01X23550Y18200D01*
G01X23550Y18200D02*
G01X23550Y16350D01*
G01X23550Y16350D02*
G01X20800Y13600D01*
G01X20800Y13600D02*
G01X20800Y11800D01*
G01X20800Y11800D02*
G01X19000Y10000D01*
G01X15000Y19000D02*
G01X15500Y18500D01*
G01X15500Y18500D02*
G01X15500Y17500D01*
G01X15500Y17500D02*
G01X16000Y17000D01*
G01X16000Y17000D02*
G01X16000Y16000D01*
G01X16000Y18000D02*
G01X16550Y17450D01*
G01X16550Y17450D02*
G01X16550Y15550D01*
G01X16550Y15550D02*
G01X16000Y15000D01*
G01X13000Y15000D02*
G01X13650Y15000D01*
G01X13650Y15000D02*
G01X14250Y14400D01*
G01X14250Y14400D02*
G01X14250Y10000D01*
G01X14250Y10000D02*
G01X14750Y9500D01*
G01X14750Y9500D02*
G01X23250Y9500D01*
G01X23250Y9500D02*
G01X23750Y9000D01*
G01X23750Y9000D02*
G01X25000Y9000D01*
G01X25000Y6000D02*
G01X24000Y7000D01*
G01X24000Y7000D02*
G01X24000Y8000D01*
G01X24000Y8000D02*
G01X25000Y9000D01*
G01X28000Y6000D02*
G01X25000Y6000D01*
G01X16000Y9000D02*
G01X19000Y9000D01*
G54D28*
G01X7102Y15000D02*
G01X7050Y14400D01*
G01X7050Y14400D02*
G01X6000Y13350D01*
G01X6000Y13350D02*
G01X6000Y13000D01*
G01X7102Y15000D02*
G01X10000Y15000D01*
G54D11*
G01X19000Y14000D02*
G01X18800Y14200D01*
G01X18800Y14200D02*
G01X18800Y16500D01*
G01X18800Y16500D02*
G01X19500Y17200D01*
G01X19500Y17200D02*
G01X19500Y18500D01*
G01X19500Y18500D02*
G01X20000Y19000D01*
G54D28*
G01X1000Y15000D02*
G01X3000Y15000D01*
G54D27*
G01X6000Y11897D02*
G01X6000Y11000D01*
G54D26*
G01X6000Y11000D03*
G54D27*
G01X9000Y12800D02*
G01X8000Y12800D01*
G01X8000Y12800D02*
G01X7650Y12450D01*
G54D26*
G01X7650Y12450D03*
G54D27*
G01X20200Y15800D02*
G01X19200Y15800D01*
G54D26*
G01X19200Y15800D03*
G54D27*
G01X17600Y7251D02*
G01X17600Y6400D01*
G54D26*
G01X17600Y6400D03*
G54D27*
G01X25000Y7430D02*
G01X26000Y7450D01*
G54D26*
G01X26000Y7450D03*
G54D27*
G01X25000Y10897D02*
G01X26000Y10900D01*
G54D26*
G01X26000Y10900D03*
G54D27*
G01X5400Y6240D02*
G01X6550Y6250D01*
G54D26*
G01X6550Y6250D03*
G54D27*
G01X25000Y4897D02*
G01X26000Y4900D01*
G54D26*
G01X26000Y4900D03*
G54D27*
G01X25000Y13430D02*
G01X26000Y13450D01*
G54D26*
G01X26000Y13450D03*
G54D11*
G01X16000Y3000D02*
G01X14650Y3000D01*
G01X14650Y3000D02*
G01X14150Y3500D01*
G01X14150Y3500D02*
G01X5500Y3500D01*
G01X5500Y3500D02*
G01X2000Y7000D01*
G01X13000Y3000D02*
G01X5000Y3000D01*
G01X5000Y3000D02*
G01X2000Y6000D01*
G01X23000Y18000D02*
G01X22400Y17400D01*
G01X22400Y17400D02*
G01X22400Y15700D01*
G01X22400Y15700D02*
G01X20300Y13600D01*
G01X20300Y13600D02*
G01X20300Y12300D01*
G01X20300Y12300D02*
G01X19000Y11000D01*
G01X19000Y19000D02*
G01X18500Y18500D01*
G01X18500Y18500D02*
G01X18500Y13500D01*
G01X18500Y13500D02*
G01X19000Y13000D01*
G01X16000Y12000D02*
G01X17000Y12000D01*
G01X17000Y12000D02*
G01X18000Y13000D01*
G01X18000Y13000D02*
G01X19000Y13000D01*

G04 Draw Text*

G04 ----------------------- Draw Pilot Holes (scratch)*
%LPC*%
G04 draw pilot holes for part C1*
G04 draw pilot holes for part C2*
G04 draw pilot holes for part C3*
G04 draw pilot holes for part C4*
G04 draw pilot holes for part D1*
G04 draw pilot holes for part JP1*
G54D11*
G01X19000Y18000D03*
G01X19000Y19000D03*
G01X20000Y18000D03*
G01X20000Y19000D03*
G01X21000Y18000D03*
G01X21000Y19000D03*
G01X22000Y18000D03*
G01X22000Y19000D03*
G01X23000Y18000D03*
G01X23000Y19000D03*
G04 draw pilot holes for part JP2*
G01X28000Y15000D03*
G01X29000Y15000D03*
G01X28000Y14000D03*
G01X29000Y14000D03*
G01X28000Y13000D03*
G01X29000Y13000D03*
G01X28000Y12000D03*
G01X29000Y12000D03*
G01X28000Y11000D03*
G01X29000Y11000D03*
G04 draw pilot holes for part JP3*
G01X28000Y9000D03*
G01X29000Y9000D03*
G01X28000Y8000D03*
G01X29000Y8000D03*
G01X28000Y7000D03*
G01X29000Y7000D03*
G01X28000Y6000D03*
G01X29000Y6000D03*
G01X28000Y5000D03*
G01X29000Y5000D03*
G04 draw pilot holes for part JP4*
G01X1000Y9000D03*
G01X2000Y9000D03*
G01X1000Y8000D03*
G01X2000Y8000D03*
G01X1000Y7000D03*
G01X2000Y7000D03*
G01X1000Y6000D03*
G01X2000Y6000D03*
G01X1000Y5000D03*
G01X2000Y5000D03*
G04 draw pilot holes for part JP5*
G01X14000Y18000D03*
G01X14000Y19000D03*
G01X15000Y18000D03*
G01X15000Y19000D03*
G01X16000Y18000D03*
G01X16000Y19000D03*
G04 draw pilot holes for part JP6*
G01X1000Y15000D03*
G01X1000Y14000D03*
G04 draw pilot holes for part R1*
G04 draw pilot holes for part R2*
G04 draw pilot holes for part R3*
G04 draw pilot holes for part U1*
G01X13000Y16000D03*
G01X13000Y15000D03*
G01X13000Y14000D03*
G01X13000Y13000D03*
G01X13000Y12000D03*
G01X13000Y11000D03*
G01X13000Y10000D03*
G01X13000Y9000D03*
G01X13000Y8000D03*
G01X13000Y7000D03*
G01X13000Y6000D03*
G01X13000Y5000D03*
G01X13000Y4000D03*
G01X13000Y3000D03*
G01X16000Y3000D03*
G01X16000Y4000D03*
G01X16000Y5000D03*
G01X16000Y6000D03*
G01X16000Y7000D03*
G01X16000Y8000D03*
G01X16000Y9000D03*
G01X16000Y10000D03*
G01X16000Y11000D03*
G01X16000Y12000D03*
G01X16000Y13000D03*
G01X16000Y14000D03*
G01X16000Y15000D03*
G01X16000Y16000D03*
G04 draw pilot holes for part U3*
G01X10000Y15000D03*
G01X10000Y16000D03*
G01X10000Y17000D03*
G04 draw pilot holes for part Y1*
G01X8000Y11000D03*
G01X8000Y10000D03*
G01X8000Y9000D03*
G01X8000Y8000D03*
G01X11000Y8000D03*
G01X11000Y9000D03*
G01X11000Y10000D03*
G01X11000Y11000D03*
G04 draw pilot holes for part H1*
G01X1500Y1500D03*
G04 draw pilot holes for part H2*
G01X1500Y18500D03*
G04 draw pilot holes for part H3*
G01X28500Y18500D03*
G04 draw pilot holes for part H4*
G01X28500Y1500D03*
G04 draw pilot holes for part C5*
G04 draw pilot holes for part C6*
G04 draw pilot holes for part C7*
G04 draw pilot holes for part U2*
G01X19000Y14000D03*
G01X19000Y13000D03*
G01X19000Y12000D03*
G01X19000Y11000D03*
G01X19000Y10000D03*
G01X19000Y9000D03*
G01X19000Y8000D03*
G01X22000Y8000D03*
G01X22000Y9000D03*
G01X22000Y10000D03*
G01X22000Y11000D03*
G01X22000Y12000D03*
G01X22000Y13000D03*
G01X22000Y14000D03*

G04 Draw pilot holes for vias*
G01X23800Y15000D03*
G01X11450Y12450D03*
G01X16750Y8000D03*
G01X21850Y15800D03*
G01X6550Y9000D03*
G01X6000Y11000D03*
G01X7650Y12450D03*
G01X19200Y15800D03*
G01X17600Y6400D03*
G01X26000Y7450D03*
G01X26000Y10900D03*
G01X6550Y6250D03*
G01X26000Y4900D03*
G01X26000Y13450D03*
M00*
M02*
