;Holesize 1 =   40.0 PLATED MILS
M48
INCH,00.0000
T01C0.040
%
G05
G90
T01
X003960Y007900
X003960Y006900
X003960Y005900
X003960Y004900
X003960Y003900
X019280Y007860
X019280Y006860
X019280Y005860
X019280Y004860
X019280Y003860
X016340Y006700
X016340Y005700
X016340Y004700
X006920Y006700
X006920Y005700
X006920Y004700
X010130Y007000
X011130Y007000
X012130Y007000
X013130Y007000
M30
